<svg xmlns="http://www.w3.org/2000/svg" width="900" height="608" font-family="monospace">
<rect width="900" height="608" fill="white"/>
<text x="450.0" y="24" text-anchor="middle" font-size="16" font-weight="bold" fill="#222">Multi-Core CPU (4 Processes)</text>
<text x="450.0" y="42" text-anchor="middle" font-size="11" fill="#666" font-style="italic">4 CPU-bound processes, each pinning ~100% of one core for 8s</text>
<text x="450.0" y="60" text-anchor="middle" font-size="11" fill="#888">samples=40  pids=5  peak_rss=41.3 MiB  avg_rss=37.0 MiB  peak_cpu=401.0%  avg_cpu=325.0%</text>
<rect x="70" y="98" width="810" height="185" fill="#fafafa" stroke="#ddd"/>
<line x1="70" y1="283.0" x2="880" y2="283.0" stroke="#eee" stroke-width="0.5"/>
<text x="62" y="287.0" text-anchor="end" font-size="11" fill="#666">0</text>
<line x1="70" y1="246.0" x2="880" y2="246.0" stroke="#eee" stroke-width="0.5"/>
<text x="62" y="250.0" text-anchor="end" font-size="11" fill="#666">10</text>
<line x1="70" y1="209.0" x2="880" y2="209.0" stroke="#eee" stroke-width="0.5"/>
<text x="62" y="213.0" text-anchor="end" font-size="11" fill="#666">20</text>
<line x1="70" y1="172.0" x2="880" y2="172.0" stroke="#eee" stroke-width="0.5"/>
<text x="62" y="176.0" text-anchor="end" font-size="11" fill="#666">30</text>
<line x1="70" y1="135.0" x2="880" y2="135.0" stroke="#eee" stroke-width="0.5"/>
<text x="62" y="139.0" text-anchor="end" font-size="11" fill="#666">40</text>
<line x1="70" y1="98.0" x2="880" y2="98.0" stroke="#eee" stroke-width="0.5"/>
<text x="62" y="102.0" text-anchor="end" font-size="11" fill="#666">50</text>
<text x="70.0" y="303" text-anchor="middle" font-size="11" fill="#666">0s</text>
<text x="171.2" y="303" text-anchor="middle" font-size="11" fill="#666">1s</text>
<text x="272.5" y="303" text-anchor="middle" font-size="11" fill="#666">2s</text>
<text x="373.8" y="303" text-anchor="middle" font-size="11" fill="#666">3s</text>
<text x="475.0" y="303" text-anchor="middle" font-size="11" fill="#666">4s</text>
<text x="576.2" y="303" text-anchor="middle" font-size="11" fill="#666">5s</text>
<text x="677.5" y="303" text-anchor="middle" font-size="11" fill="#666">6s</text>
<text x="778.8" y="303" text-anchor="middle" font-size="11" fill="#666">7s</text>
<text x="880.0" y="303" text-anchor="middle" font-size="11" fill="#666">8s</text>
<polyline points="70.0,244.2 171.2,244.2 272.5,244.2 373.8,244.2 475.0,244.2 576.2,244.2 677.5,244.2 778.8,244.2 880.0,244.2" fill="none" stroke="#3b82f6" stroke-width="1.0" stroke-dasharray="4,3"/>
<polyline points="70.0,254.5 171.2,254.3 272.5,254.3 373.8,254.3 475.0,254.3 576.2,254.3 677.5,254.3" fill="none" stroke="#ef4444" stroke-width="1.0" stroke-dasharray="4,3"/>
<polyline points="70.0,254.5 171.2,254.5 272.5,254.5 373.8,254.5 475.0,254.5 576.2,254.5 677.5,254.5 778.8,254.5" fill="none" stroke="#22c55e" stroke-width="1.0" stroke-dasharray="4,3"/>
<polyline points="70.0,254.5 171.2,254.5 272.5,254.5 373.8,254.5 475.0,254.5 576.2,254.5 677.5,254.5 778.8,254.5" fill="none" stroke="#f59e0b" stroke-width="1.0" stroke-dasharray="4,3"/>
<polyline points="171.2,254.5 272.5,254.5 373.8,254.5 475.0,254.5 576.2,254.5 677.5,254.5 778.8,254.5 880.0,254.5" fill="none" stroke="#8b5cf6" stroke-width="1.0" stroke-dasharray="4,3"/>
<polygon points="70.0,283.0 70.0,158.9 171.2,130.2 272.5,130.2 373.8,130.2 475.0,130.2 576.2,130.2 677.5,130.2 778.8,158.9 880.0,215.8 880.0,283.0" fill="#1d4ed8" opacity="0.12"/>
<polyline points="70.0,158.9 171.2,130.2 272.5,130.2 373.8,130.2 475.0,130.2 576.2,130.2 677.5,130.2 778.8,158.9 880.0,215.8" fill="none" stroke="#1d4ed8" stroke-width="2.0"/>
<text x="475.0" y="86" text-anchor="middle" font-size="13" font-weight="bold" fill="#333">RSS total (5 pids) (MiB)</text>
<line x1="830" y1="112" x2="850" y2="112" stroke="#3b82f6" stroke-width="1.5" stroke-dasharray="4,3"/>
<text x="854" y="116" font-size="9" fill="#666">pid 3366370</text>
<line x1="830" y1="126" x2="850" y2="126" stroke="#ef4444" stroke-width="1.5" stroke-dasharray="4,3"/>
<text x="854" y="130" font-size="9" fill="#666">pid 3366375</text>
<line x1="830" y1="140" x2="850" y2="140" stroke="#22c55e" stroke-width="1.5" stroke-dasharray="4,3"/>
<text x="854" y="144" font-size="9" fill="#666">pid 3366397</text>
<line x1="830" y1="154" x2="850" y2="154" stroke="#f59e0b" stroke-width="1.5" stroke-dasharray="4,3"/>
<text x="854" y="158" font-size="9" fill="#666">pid 3366444</text>
<line x1="830" y1="168" x2="850" y2="168" stroke="#8b5cf6" stroke-width="1.5" stroke-dasharray="4,3"/>
<text x="854" y="172" font-size="9" fill="#666">pid 3366479</text>
<rect x="70" y="368" width="810" height="185" fill="#fafafa" stroke="#ddd"/>
<line x1="70" y1="553.0" x2="880" y2="553.0" stroke="#eee" stroke-width="0.5"/>
<text x="62" y="557.0" text-anchor="end" font-size="11" fill="#666">0</text>
<line x1="70" y1="516.0" x2="880" y2="516.0" stroke="#eee" stroke-width="0.5"/>
<text x="62" y="520.0" text-anchor="end" font-size="11" fill="#666">100</text>
<line x1="70" y1="479.0" x2="880" y2="479.0" stroke="#eee" stroke-width="0.5"/>
<text x="62" y="483.0" text-anchor="end" font-size="11" fill="#666">200</text>
<line x1="70" y1="442.0" x2="880" y2="442.0" stroke="#eee" stroke-width="0.5"/>
<text x="62" y="446.0" text-anchor="end" font-size="11" fill="#666">300</text>
<line x1="70" y1="405.0" x2="880" y2="405.0" stroke="#eee" stroke-width="0.5"/>
<text x="62" y="409.0" text-anchor="end" font-size="11" fill="#666">400</text>
<line x1="70" y1="368.0" x2="880" y2="368.0" stroke="#eee" stroke-width="0.5"/>
<text x="62" y="372.0" text-anchor="end" font-size="11" fill="#666">500</text>
<text x="70.0" y="573" text-anchor="middle" font-size="11" fill="#666">0s</text>
<text x="171.2" y="573" text-anchor="middle" font-size="11" fill="#666">1s</text>
<text x="272.5" y="573" text-anchor="middle" font-size="11" fill="#666">2s</text>
<text x="373.8" y="573" text-anchor="middle" font-size="11" fill="#666">3s</text>
<text x="475.0" y="573" text-anchor="middle" font-size="11" fill="#666">4s</text>
<text x="576.2" y="573" text-anchor="middle" font-size="11" fill="#666">5s</text>
<text x="677.5" y="573" text-anchor="middle" font-size="11" fill="#666">6s</text>
<text x="778.8" y="573" text-anchor="middle" font-size="11" fill="#666">7s</text>
<text x="880.0" y="573" text-anchor="middle" font-size="11" fill="#666">8s</text>
<polyline points="70.0,553.0 171.2,552.6 272.5,553.0 373.8,553.0 475.0,553.0 576.2,553.0 677.5,553.0 778.8,553.0 880.0,553.0" fill="none" stroke="#3b82f6" stroke-width="1.0" stroke-dasharray="4,3"/>
<polyline points="70.0,516.0 171.2,516.0 272.5,516.0 373.8,516.0 475.0,516.0 576.2,516.0 677.5,516.0" fill="none" stroke="#ef4444" stroke-width="1.0" stroke-dasharray="4,3"/>
<polyline points="70.0,532.3 171.2,516.0 272.5,516.0 373.8,516.0 475.0,516.0 576.2,516.0 677.5,516.0 778.8,516.0" fill="none" stroke="#22c55e" stroke-width="1.0" stroke-dasharray="4,3"/>
<polyline points="70.0,549.5 171.2,516.0 272.5,516.0 373.8,516.0 475.0,516.0 576.2,516.0 677.5,516.0 778.8,516.0" fill="none" stroke="#f59e0b" stroke-width="1.0" stroke-dasharray="4,3"/>
<polyline points="171.2,531.2 272.5,516.0 373.8,515.6 475.0,516.0 576.2,516.0 677.5,516.4 778.8,516.0 880.0,516.0" fill="none" stroke="#8b5cf6" stroke-width="1.0" stroke-dasharray="4,3"/>
<polygon points="70.0,553.0 70.0,491.8 171.2,419.8 272.5,405.0 373.8,404.6 475.0,405.0 576.2,405.0 677.5,405.4 778.8,442.0 880.0,516.0 880.0,553.0" fill="#b91c1c" opacity="0.12"/>
<polyline points="70.0,491.8 171.2,419.8 272.5,405.0 373.8,404.6 475.0,405.0 576.2,405.0 677.5,405.4 778.8,442.0 880.0,516.0" fill="none" stroke="#b91c1c" stroke-width="2.0"/>
<text x="475.0" y="356" text-anchor="middle" font-size="13" font-weight="bold" fill="#333">CPU total (5 pids) (%)</text>
<line x1="830" y1="382" x2="850" y2="382" stroke="#3b82f6" stroke-width="1.5" stroke-dasharray="4,3"/>
<text x="854" y="386" font-size="9" fill="#666">pid 3366370</text>
<line x1="830" y1="396" x2="850" y2="396" stroke="#ef4444" stroke-width="1.5" stroke-dasharray="4,3"/>
<text x="854" y="400" font-size="9" fill="#666">pid 3366375</text>
<line x1="830" y1="410" x2="850" y2="410" stroke="#22c55e" stroke-width="1.5" stroke-dasharray="4,3"/>
<text x="854" y="414" font-size="9" fill="#666">pid 3366397</text>
<line x1="830" y1="424" x2="850" y2="424" stroke="#f59e0b" stroke-width="1.5" stroke-dasharray="4,3"/>
<text x="854" y="428" font-size="9" fill="#666">pid 3366444</text>
<line x1="830" y1="438" x2="850" y2="438" stroke="#8b5cf6" stroke-width="1.5" stroke-dasharray="4,3"/>
<text x="854" y="442" font-size="9" fill="#666">pid 3366479</text>
</svg>