<svg xmlns="http://www.w3.org/2000/svg" width="900" height="608" font-family="monospace">
<rect width="900" height="608" fill="white"/>
<text x="450.0" y="24" text-anchor="middle" font-size="16" font-weight="bold" fill="#222">48-Core CPU</text>
<text x="450.0" y="42" text-anchor="middle" font-size="11" fill="#666" font-style="italic">48 CPU-bound processes, each pinning ~100% of one core for 8s</text>
<text x="450.0" y="60" text-anchor="middle" font-size="11" fill="#888">samples=343  pids=49  peak_rss=378.5 MiB  avg_rss=378.0 MiB  peak_cpu=4837.2%  avg_cpu=4804.2%</text>
<rect x="70" y="98" width="810" height="185" fill="#fafafa" stroke="#ddd"/>
<line x1="70" y1="283.0" x2="880" y2="283.0" stroke="#eee" stroke-width="0.5"/>
<text x="62" y="287.0" text-anchor="end" font-size="11" fill="#666">0</text>
<line x1="70" y1="236.8" x2="880" y2="236.8" stroke="#eee" stroke-width="0.5"/>
<text x="62" y="240.8" text-anchor="end" font-size="11" fill="#666">100</text>
<line x1="70" y1="190.5" x2="880" y2="190.5" stroke="#eee" stroke-width="0.5"/>
<text x="62" y="194.5" text-anchor="end" font-size="11" fill="#666">200</text>
<line x1="70" y1="144.2" x2="880" y2="144.2" stroke="#eee" stroke-width="0.5"/>
<text x="62" y="148.2" text-anchor="end" font-size="11" fill="#666">300</text>
<line x1="70" y1="98.0" x2="880" y2="98.0" stroke="#eee" stroke-width="0.5"/>
<text x="62" y="102.0" text-anchor="end" font-size="11" fill="#666">400</text>
<text x="70.0" y="303" text-anchor="middle" font-size="11" fill="#666">0s</text>
<text x="205.0" y="303" text-anchor="middle" font-size="11" fill="#666">1s</text>
<text x="340.0" y="303" text-anchor="middle" font-size="11" fill="#666">2s</text>
<text x="475.0" y="303" text-anchor="middle" font-size="11" fill="#666">3s</text>
<text x="610.0" y="303" text-anchor="middle" font-size="11" fill="#666">4s</text>
<text x="745.0" y="303" text-anchor="middle" font-size="11" fill="#666">5s</text>
<text x="880.0" y="303" text-anchor="middle" font-size="11" fill="#666">6s</text>
<polygon points="70.0,283.0 70.0,108.4 205.0,108.3 340.0,108.2 475.0,108.2 610.0,108.0 745.0,108.0 880.0,108.0 880.0,283.0" fill="#1d4ed8" opacity="0.12"/>
<polyline points="70.0,108.4 205.0,108.3 340.0,108.2 475.0,108.2 610.0,108.0 745.0,108.0 880.0,108.0" fill="none" stroke="#1d4ed8" stroke-width="2.0"/>
<text x="475.0" y="86" text-anchor="middle" font-size="13" font-weight="bold" fill="#333">RSS total (49 pids) (MiB)</text>
<rect x="70" y="368" width="810" height="185" fill="#fafafa" stroke="#ddd"/>
<line x1="70" y1="553.0" x2="880" y2="553.0" stroke="#eee" stroke-width="0.5"/>
<text x="62" y="557.0" text-anchor="end" font-size="11" fill="#666">0</text>
<line x1="70" y1="516.0" x2="880" y2="516.0" stroke="#eee" stroke-width="0.5"/>
<text x="62" y="520.0" text-anchor="end" font-size="11" fill="#666">1000</text>
<line x1="70" y1="479.0" x2="880" y2="479.0" stroke="#eee" stroke-width="0.5"/>
<text x="62" y="483.0" text-anchor="end" font-size="11" fill="#666">2000</text>
<line x1="70" y1="442.0" x2="880" y2="442.0" stroke="#eee" stroke-width="0.5"/>
<text x="62" y="446.0" text-anchor="end" font-size="11" fill="#666">3000</text>
<line x1="70" y1="405.0" x2="880" y2="405.0" stroke="#eee" stroke-width="0.5"/>
<text x="62" y="409.0" text-anchor="end" font-size="11" fill="#666">4000</text>
<line x1="70" y1="368.0" x2="880" y2="368.0" stroke="#eee" stroke-width="0.5"/>
<text x="62" y="372.0" text-anchor="end" font-size="11" fill="#666">5000</text>
<text x="70.0" y="573" text-anchor="middle" font-size="11" fill="#666">0s</text>
<text x="205.0" y="573" text-anchor="middle" font-size="11" fill="#666">1s</text>
<text x="340.0" y="573" text-anchor="middle" font-size="11" fill="#666">2s</text>
<text x="475.0" y="573" text-anchor="middle" font-size="11" fill="#666">3s</text>
<text x="610.0" y="573" text-anchor="middle" font-size="11" fill="#666">4s</text>
<text x="745.0" y="573" text-anchor="middle" font-size="11" fill="#666">5s</text>
<text x="880.0" y="573" text-anchor="middle" font-size="11" fill="#666">6s</text>
<polygon points="70.0,553.0 70.0,374.0 205.0,374.7 340.0,375.0 475.0,375.7 610.0,375.3 745.0,375.6 880.0,376.5 880.0,553.0" fill="#b91c1c" opacity="0.12"/>
<polyline points="70.0,374.0 205.0,374.7 340.0,375.0 475.0,375.7 610.0,375.3 745.0,375.6 880.0,376.5" fill="none" stroke="#b91c1c" stroke-width="2.0"/>
<text x="475.0" y="356" text-anchor="middle" font-size="13" font-weight="bold" fill="#333">CPU total (49 pids) (%)</text>
</svg>