<svg xmlns="http://www.w3.org/2000/svg" width="900" height="608" font-family="monospace">
<rect width="900" height="608" fill="white"/>
<text x="450.0" y="24" text-anchor="middle" font-size="16" font-weight="bold" fill="#222">Multi-Process Tree</text>
<text x="450.0" y="42" text-anchor="middle" font-size="11" fill="#666" font-style="italic">Parent spawns 3 children (staggered), each ~30 MiB RSS + CPU burn</text>
<text x="450.0" y="60" text-anchor="middle" font-size="11" fill="#888">samples=24  pids=4  peak_rss=124.3 MiB  avg_rss=102.3 MiB  peak_cpu=9.3%  avg_cpu=7.0%</text>
<rect x="70" y="98" width="810" height="185" fill="#fafafa" stroke="#ddd"/>
<line x1="70" y1="283.0" x2="880" y2="283.0" stroke="#eee" stroke-width="0.5"/>
<text x="62" y="287.0" text-anchor="end" font-size="11" fill="#666">0</text>
<line x1="70" y1="256.6" x2="880" y2="256.6" stroke="#eee" stroke-width="0.5"/>
<text x="62" y="260.6" text-anchor="end" font-size="11" fill="#666">20</text>
<line x1="70" y1="230.1" x2="880" y2="230.1" stroke="#eee" stroke-width="0.5"/>
<text x="62" y="234.1" text-anchor="end" font-size="11" fill="#666">40</text>
<line x1="70" y1="203.7" x2="880" y2="203.7" stroke="#eee" stroke-width="0.5"/>
<text x="62" y="207.7" text-anchor="end" font-size="11" fill="#666">60</text>
<line x1="70" y1="177.3" x2="880" y2="177.3" stroke="#eee" stroke-width="0.5"/>
<text x="62" y="181.3" text-anchor="end" font-size="11" fill="#666">80</text>
<line x1="70" y1="150.9" x2="880" y2="150.9" stroke="#eee" stroke-width="0.5"/>
<text x="62" y="154.9" text-anchor="end" font-size="11" fill="#666">100</text>
<line x1="70" y1="124.4" x2="880" y2="124.4" stroke="#eee" stroke-width="0.5"/>
<text x="62" y="128.4" text-anchor="end" font-size="11" fill="#666">120</text>
<line x1="70" y1="98.0" x2="880" y2="98.0" stroke="#eee" stroke-width="0.5"/>
<text x="62" y="102.0" text-anchor="end" font-size="11" fill="#666">140</text>
<text x="70.0" y="303" text-anchor="middle" font-size="11" fill="#666">0s</text>
<text x="205.0" y="303" text-anchor="middle" font-size="11" fill="#666">1s</text>
<text x="340.0" y="303" text-anchor="middle" font-size="11" fill="#666">2s</text>
<text x="475.0" y="303" text-anchor="middle" font-size="11" fill="#666">3s</text>
<text x="610.0" y="303" text-anchor="middle" font-size="11" fill="#666">4s</text>
<text x="745.0" y="303" text-anchor="middle" font-size="11" fill="#666">5s</text>
<text x="880.0" y="303" text-anchor="middle" font-size="11" fill="#666">6s</text>
<polyline points="70.0,271.3 205.0,271.3 340.0,271.3 475.0,271.3 610.0,271.3 745.0,271.3 880.0,271.3" fill="none" stroke="#3b82f6" stroke-width="1.0" stroke-dasharray="4,3"/>
<polyline points="70.0,232.2 205.0,232.2 340.0,232.2 475.0,232.2 610.0,232.2" fill="none" stroke="#ef4444" stroke-width="1.0" stroke-dasharray="4,3"/>
<polyline points="70.0,232.1 205.0,232.1 340.0,232.1 475.0,232.1 610.0,232.1 745.0,232.1" fill="none" stroke="#22c55e" stroke-width="1.0" stroke-dasharray="4,3"/>
<polyline points="205.0,232.2 340.0,232.2 475.0,232.2 610.0,232.2 745.0,232.2 880.0,232.2" fill="none" stroke="#f59e0b" stroke-width="1.0" stroke-dasharray="4,3"/>
<polygon points="70.0,283.0 70.0,169.6 205.0,118.7 340.0,118.7 475.0,118.7 610.0,118.7 745.0,169.6 880.0,220.5 880.0,283.0" fill="#1d4ed8" opacity="0.12"/>
<polyline points="70.0,169.6 205.0,118.7 340.0,118.7 475.0,118.7 610.0,118.7 745.0,169.6 880.0,220.5" fill="none" stroke="#1d4ed8" stroke-width="2.0"/>
<text x="475.0" y="86" text-anchor="middle" font-size="13" font-weight="bold" fill="#333">RSS total (4 pids) (MiB)</text>
<line x1="830" y1="112" x2="850" y2="112" stroke="#3b82f6" stroke-width="1.5" stroke-dasharray="4,3"/>
<text x="854" y="116" font-size="9" fill="#666">pid 3365315</text>
<line x1="830" y1="126" x2="850" y2="126" stroke="#ef4444" stroke-width="1.5" stroke-dasharray="4,3"/>
<text x="854" y="130" font-size="9" fill="#666">pid 3365320</text>
<line x1="830" y1="140" x2="850" y2="140" stroke="#22c55e" stroke-width="1.5" stroke-dasharray="4,3"/>
<text x="854" y="144" font-size="9" fill="#666">pid 3365370</text>
<line x1="830" y1="154" x2="850" y2="154" stroke="#f59e0b" stroke-width="1.5" stroke-dasharray="4,3"/>
<text x="854" y="158" font-size="9" fill="#666">pid 3365396</text>
<rect x="70" y="368" width="810" height="185" fill="#fafafa" stroke="#ddd"/>
<line x1="70" y1="553.0" x2="880" y2="553.0" stroke="#eee" stroke-width="0.5"/>
<text x="62" y="557.0" text-anchor="end" font-size="11" fill="#666">0.0</text>
<line x1="70" y1="516.0" x2="880" y2="516.0" stroke="#eee" stroke-width="0.5"/>
<text x="62" y="520.0" text-anchor="end" font-size="11" fill="#666">2.0</text>
<line x1="70" y1="479.0" x2="880" y2="479.0" stroke="#eee" stroke-width="0.5"/>
<text x="62" y="483.0" text-anchor="end" font-size="11" fill="#666">4.0</text>
<line x1="70" y1="442.0" x2="880" y2="442.0" stroke="#eee" stroke-width="0.5"/>
<text x="62" y="446.0" text-anchor="end" font-size="11" fill="#666">6.0</text>
<line x1="70" y1="405.0" x2="880" y2="405.0" stroke="#eee" stroke-width="0.5"/>
<text x="62" y="409.0" text-anchor="end" font-size="11" fill="#666">8.0</text>
<line x1="70" y1="368.0" x2="880" y2="368.0" stroke="#eee" stroke-width="0.5"/>
<text x="62" y="372.0" text-anchor="end" font-size="11" fill="#666">10.0</text>
<text x="70.0" y="573" text-anchor="middle" font-size="11" fill="#666">0s</text>
<text x="205.0" y="573" text-anchor="middle" font-size="11" fill="#666">1s</text>
<text x="340.0" y="573" text-anchor="middle" font-size="11" fill="#666">2s</text>
<text x="475.0" y="573" text-anchor="middle" font-size="11" fill="#666">3s</text>
<text x="610.0" y="573" text-anchor="middle" font-size="11" fill="#666">4s</text>
<text x="745.0" y="573" text-anchor="middle" font-size="11" fill="#666">5s</text>
<text x="880.0" y="573" text-anchor="middle" font-size="11" fill="#666">6s</text>
<polyline points="70.0,553.0 205.0,553.0 340.0,553.0 475.0,553.0 610.0,553.0 745.0,553.0 880.0,553.0" fill="none" stroke="#3b82f6" stroke-width="1.0" stroke-dasharray="4,3"/>
<polyline points="70.0,466.6 205.0,534.5 340.0,497.5 475.0,497.5 610.0,516.0" fill="none" stroke="#ef4444" stroke-width="1.0" stroke-dasharray="4,3"/>
<polyline points="70.0,466.6 205.0,497.5 340.0,534.5 475.0,516.0 610.0,479.0 745.0,516.0" fill="none" stroke="#22c55e" stroke-width="1.0" stroke-dasharray="4,3"/>
<polyline points="205.0,460.5 340.0,479.0 475.0,553.0 610.0,497.5 745.0,479.0 880.0,497.5" fill="none" stroke="#f59e0b" stroke-width="1.0" stroke-dasharray="4,3"/>
<polygon points="70.0,553.0 70.0,380.2 205.0,386.5 340.0,405.0 475.0,460.5 610.0,386.5 745.0,442.0 880.0,497.5 880.0,553.0" fill="#b91c1c" opacity="0.12"/>
<polyline points="70.0,380.2 205.0,386.5 340.0,405.0 475.0,460.5 610.0,386.5 745.0,442.0 880.0,497.5" fill="none" stroke="#b91c1c" stroke-width="2.0"/>
<text x="475.0" y="356" text-anchor="middle" font-size="13" font-weight="bold" fill="#333">CPU total (4 pids) (%)</text>
<line x1="830" y1="382" x2="850" y2="382" stroke="#3b82f6" stroke-width="1.5" stroke-dasharray="4,3"/>
<text x="854" y="386" font-size="9" fill="#666">pid 3365315</text>
<line x1="830" y1="396" x2="850" y2="396" stroke="#ef4444" stroke-width="1.5" stroke-dasharray="4,3"/>
<text x="854" y="400" font-size="9" fill="#666">pid 3365320</text>
<line x1="830" y1="410" x2="850" y2="410" stroke="#22c55e" stroke-width="1.5" stroke-dasharray="4,3"/>
<text x="854" y="414" font-size="9" fill="#666">pid 3365370</text>
<line x1="830" y1="424" x2="850" y2="424" stroke="#f59e0b" stroke-width="1.5" stroke-dasharray="4,3"/>
<text x="854" y="428" font-size="9" fill="#666">pid 3365396</text>
</svg>