<svg xmlns="http://www.w3.org/2000/svg" width="900" height="608" font-family="monospace">
<rect width="900" height="608" fill="white"/>
<text x="450.0" y="24" text-anchor="middle" font-size="16" font-weight="bold" fill="#222">Simulated 2h Build</text>
<text x="450.0" y="42" text-anchor="middle" font-size="11" fill="#666" font-style="italic">Synthetic: RSS ramps during compile, plateaus, drops at cleanup. CPU ~350% multi-core.</text>
<text x="450.0" y="60" text-anchor="middle" font-size="11" fill="#888">samples=1440  peak_rss=2068.0 MiB  avg_rss=1498.7 MiB  peak_cpu=414.8%  avg_cpu=314.5%</text>
<rect x="70" y="98" width="810" height="185" fill="#fafafa" stroke="#ddd"/>
<line x1="70" y1="283.0" x2="880" y2="283.0" stroke="#eee" stroke-width="0.5"/>
<text x="62" y="287.0" text-anchor="end" font-size="11" fill="#666">0</text>
<line x1="70" y1="246.0" x2="880" y2="246.0" stroke="#eee" stroke-width="0.5"/>
<text x="62" y="250.0" text-anchor="end" font-size="11" fill="#666">500</text>
<line x1="70" y1="209.0" x2="880" y2="209.0" stroke="#eee" stroke-width="0.5"/>
<text x="62" y="213.0" text-anchor="end" font-size="11" fill="#666">1000</text>
<line x1="70" y1="172.0" x2="880" y2="172.0" stroke="#eee" stroke-width="0.5"/>
<text x="62" y="176.0" text-anchor="end" font-size="11" fill="#666">1500</text>
<line x1="70" y1="135.0" x2="880" y2="135.0" stroke="#eee" stroke-width="0.5"/>
<text x="62" y="139.0" text-anchor="end" font-size="11" fill="#666">2000</text>
<line x1="70" y1="98.0" x2="880" y2="98.0" stroke="#eee" stroke-width="0.5"/>
<text x="62" y="102.0" text-anchor="end" font-size="11" fill="#666">2500</text>
<text x="70.0" y="303" text-anchor="middle" font-size="11" fill="#666">0m</text>
<text x="171.3" y="303" text-anchor="middle" font-size="11" fill="#666">15m</text>
<text x="272.6" y="303" text-anchor="middle" font-size="11" fill="#666">30m</text>
<text x="374.0" y="303" text-anchor="middle" font-size="11" fill="#666">45m</text>
<text x="475.3" y="303" text-anchor="middle" font-size="11" fill="#666">60m</text>
<text x="576.6" y="303" text-anchor="middle" font-size="11" fill="#666">75m</text>
<text x="677.9" y="303" text-anchor="middle" font-size="11" fill="#666">90m</text>
<text x="779.2" y="303" text-anchor="middle" font-size="11" fill="#666">105m</text>
<text x="880.0" y="303" text-anchor="middle" font-size="11" fill="#666">120m</text>
<polygon points="70.0,283.0 70.0,268.2 70.6,266.8 71.1,266.0 71.7,265.3 72.3,264.6 72.8,264.0 73.4,263.4 73.9,262.9 74.5,262.3 75.1,261.8 75.6,261.3 76.2,260.9 76.8,260.4 77.3,260.0 77.9,259.5 78.4,259.1 79.0,258.7 79.6,258.3 80.1,257.9 80.7,257.5 81.3,257.1 81.8,256.7 82.4,256.3 82.9,255.9 83.5,255.6 84.1,255.2 84.6,254.8 85.2,254.5 85.8,254.1 86.3,253.8 86.9,253.4 87.4,253.1 88.0,252.7 88.6,252.4 89.1,252.1 89.7,251.7 90.3,251.4 90.8,251.1 91.4,250.8 92.0,250.4 92.5,250.1 93.1,249.8 93.6,249.5 94.2,249.2 94.8,248.9 95.3,248.6 95.9,248.3 96.5,248.0 97.0,247.7 97.6,247.4 98.1,247.1 98.7,246.8 99.3,246.5 99.8,246.2 100.4,245.9 101.0,245.6 101.5,245.3 102.1,245.0 102.6,244.7 103.2,244.5 103.8,244.2 104.3,243.9 104.9,243.6 105.5,243.3 106.0,243.1 106.6,242.8 107.2,242.5 107.7,242.3 108.3,242.0 108.8,241.7 109.4,241.4 110.0,241.2 110.5,240.9 111.1,240.6 111.7,240.4 112.2,240.1 112.8,239.9 113.3,239.6 113.9,239.3 114.5,239.1 115.0,238.8 115.6,238.6 116.2,238.3 116.7,238.1 117.3,237.8 117.8,237.6 118.4,237.3 119.0,237.0 119.5,236.8 120.1,236.6 120.7,236.3 121.2,236.1 121.8,235.8 122.3,235.6 122.9,235.3 123.5,235.1 124.0,234.8 124.6,234.6 125.2,234.3 125.7,234.1 126.3,233.9 126.9,233.6 127.4,233.4 128.0,233.1 128.5,232.9 129.1,232.7 129.7,232.4 130.2,232.2 130.8,232.0 131.4,231.7 131.9,231.5 132.5,231.3 133.0,231.0 133.6,230.8 134.2,230.6 134.7,230.3 135.3,230.1 135.9,229.9 136.4,229.6 137.0,229.4 137.5,229.2 138.1,229.0 138.7,228.7 139.2,228.5 139.8,228.3 140.4,228.1 140.9,227.8 141.5,227.6 142.1,227.4 142.6,227.2 143.2,226.9 143.7,226.7 144.3,226.5 144.9,226.3 145.4,226.1 146.0,225.8 146.6,225.6 147.1,225.4 147.7,225.2 148.2,225.0 148.8,224.7 149.4,224.5 149.9,224.3 150.5,224.1 151.1,223.9 151.6,223.7 152.2,223.4 152.7,223.2 153.3,223.0 153.9,222.8 154.4,222.6 155.0,222.4 155.6,222.2 156.1,222.0 156.7,221.7 157.2,221.5 157.8,221.3 158.4,221.1 158.9,220.9 159.5,220.7 160.1,220.5 160.6,220.3 161.2,220.1 161.8,219.9 162.3,219.7 162.9,219.4 163.4,219.2 164.0,219.0 164.6,218.8 165.1,218.6 165.7,218.4 166.3,218.2 166.8,218.0 167.4,217.8 167.9,217.6 168.5,217.4 169.1,217.2 169.6,217.0 170.2,216.8 170.8,216.6 171.3,216.4 171.9,216.2 172.4,216.0 173.0,215.8 173.6,215.6 174.1,215.4 174.7,215.2 175.3,215.0 175.8,214.8 176.4,214.6 176.9,214.4 177.5,214.2 178.1,214.0 178.6,213.8 179.2,213.6 179.8,213.4 180.3,213.2 180.9,213.0 181.5,212.8 182.0,212.6 182.6,212.4 183.1,212.2 183.7,212.0 184.3,211.8 184.8,211.6 185.4,211.4 186.0,211.2 186.5,211.1 187.1,210.9 187.6,210.7 188.2,210.5 188.8,210.3 189.3,210.1 189.9,209.9 190.5,209.7 191.0,209.5 191.6,209.3 192.1,209.1 192.7,208.9 193.3,208.8 193.8,208.6 194.4,208.4 195.0,208.2 195.5,208.0 196.1,207.8 196.7,207.6 197.2,207.4 197.8,207.2 198.3,207.1 198.9,206.9 199.5,206.7 200.0,206.5 200.6,206.3 201.2,206.1 201.7,205.9 202.3,205.7 202.8,205.6 203.4,205.4 204.0,205.2 204.5,205.0 205.1,204.8 205.7,204.6 206.2,204.5 206.8,204.3 207.3,204.1 207.9,203.9 208.5,203.7 209.0,203.5 209.6,203.3 210.2,203.2 210.7,203.0 211.3,202.8 211.8,202.6 212.4,202.4 213.0,202.3 213.5,202.1 214.1,201.9 214.7,201.7 215.2,201.5 215.8,201.3 216.4,201.2 216.9,201.0 217.5,200.8 218.0,200.6 218.6,200.4 219.2,200.3 219.7,200.1 220.3,199.9 220.9,199.7 221.4,199.6 222.0,199.4 222.5,199.2 223.1,199.0 223.7,198.8 224.2,198.7 224.8,198.5 225.4,198.3 225.9,198.1 226.5,198.0 227.0,197.8 227.6,197.6 228.2,197.4 228.7,197.2 229.3,197.1 229.9,196.9 230.4,196.7 231.0,196.5 231.5,196.4 232.1,196.2 232.7,196.0 233.2,195.8 233.8,195.7 234.4,195.5 234.9,195.3 235.5,195.1 236.1,195.0 236.6,194.8 237.2,194.6 237.7,194.5 238.3,194.3 238.9,194.1 239.4,193.9 240.0,193.8 240.6,193.6 241.1,193.4 241.7,193.2 242.2,193.1 242.8,192.9 243.4,192.7 243.9,192.6 244.5,192.4 245.1,192.2 245.6,192.0 246.2,191.9 246.7,191.7 247.3,191.5 247.9,191.4 248.4,191.2 249.0,191.0 249.6,190.9 250.1,190.7 250.7,190.5 251.3,190.3 251.8,190.2 252.4,190.0 252.9,189.8 253.5,189.7 254.1,189.5 254.6,189.3 255.2,189.2 255.8,189.0 256.3,188.8 256.9,188.7 257.4,188.5 258.0,188.3 258.6,188.2 259.1,188.0 259.7,187.8 260.3,187.7 260.8,187.5 261.4,187.3 261.9,187.2 262.5,187.0 263.1,186.8 263.6,186.7 264.2,186.5 264.8,186.3 265.3,186.2 265.9,186.0 266.4,185.8 267.0,185.7 267.6,185.5 268.1,185.3 268.7,185.2 269.3,185.0 269.8,184.8 270.4,184.7 271.0,184.5 271.5,184.3 272.1,184.2 272.6,184.0 273.2,183.9 273.8,183.7 274.3,183.5 274.9,183.4 275.5,183.2 276.0,183.0 276.6,182.9 277.1,182.7 277.7,182.6 278.3,182.4 278.8,182.2 279.4,182.1 280.0,181.9 280.5,181.7 281.1,181.6 281.6,181.4 282.2,181.3 282.8,181.1 283.3,180.9 283.9,180.8 284.5,180.6 285.0,180.5 285.6,180.3 286.2,180.1 286.7,180.0 287.3,179.8 287.8,179.6 288.4,179.5 289.0,179.3 289.5,179.2 290.1,179.0 290.7,178.8 291.2,178.7 291.8,178.5 292.3,178.4 292.9,178.2 293.5,178.1 294.0,177.9 294.6,177.7 295.2,177.6 295.7,177.4 296.3,177.3 296.8,177.1 297.4,176.9 298.0,176.8 298.5,176.6 299.1,176.5 299.7,176.3 300.2,176.2 300.8,176.0 301.3,175.8 301.9,175.7 302.5,175.5 303.0,175.4 303.6,175.2 304.2,175.1 304.7,174.9 305.3,174.7 305.9,174.6 306.4,174.4 307.0,174.3 307.5,174.1 308.1,174.0 308.7,173.8 309.2,173.6 309.8,173.5 310.4,173.3 310.9,173.2 311.5,173.0 312.0,172.9 312.6,172.7 313.2,172.6 313.7,172.4 314.3,172.3 314.9,172.1 315.4,171.9 316.0,171.8 316.5,171.6 317.1,171.5 317.7,171.3 318.2,171.2 318.8,171.0 319.4,170.9 319.9,170.7 320.5,170.6 321.0,170.4 321.6,170.2 322.2,170.1 322.7,169.9 323.3,169.8 323.9,169.6 324.4,169.5 325.0,169.3 325.6,169.2 326.1,169.0 326.7,168.9 327.2,168.7 327.8,168.6 328.4,168.4 328.9,168.3 329.5,168.1 330.1,168.0 330.6,167.8 331.2,167.7 331.7,167.5 332.3,167.4 332.9,167.2 333.4,167.0 334.0,166.9 334.6,166.7 335.1,166.6 335.7,166.4 336.2,166.3 336.8,166.1 337.4,166.0 337.9,165.8 338.5,165.7 339.1,165.5 339.6,165.4 340.2,165.2 340.8,165.1 341.3,164.9 341.9,164.8 342.4,164.6 343.0,164.5 343.6,164.3 344.1,164.2 344.7,164.0 345.3,163.9 345.8,163.7 346.4,163.6 346.9,163.4 347.5,163.3 348.1,163.1 348.6,163.0 349.2,162.8 349.8,162.7 350.3,162.6 350.9,162.4 351.4,162.3 352.0,162.1 352.6,162.0 353.1,161.8 353.7,161.7 354.3,161.5 354.8,161.4 355.4,161.2 355.9,161.1 356.5,160.9 357.1,160.8 357.6,160.6 358.2,160.5 358.8,160.3 359.3,160.2 359.9,160.0 360.5,159.9 361.0,159.7 361.6,159.6 362.1,159.5 362.7,159.3 363.3,159.2 363.8,159.0 364.4,158.9 365.0,158.7 365.5,158.6 366.1,158.4 366.6,158.3 367.2,158.1 367.8,158.0 368.3,157.8 368.9,157.7 369.5,157.6 370.0,157.4 370.6,157.3 371.1,157.1 371.7,157.0 372.3,156.8 372.8,156.7 373.4,156.5 374.0,156.4 374.5,156.2 375.1,156.1 375.6,156.0 376.2,155.8 376.8,155.7 377.3,155.5 377.9,155.4 378.5,155.2 379.0,155.1 379.6,154.9 380.2,154.8 380.7,154.7 381.3,154.5 381.8,154.4 382.4,154.2 383.0,154.1 383.5,153.9 384.1,153.8 384.7,153.7 385.2,153.5 385.8,153.4 386.3,153.2 386.9,153.1 387.5,152.9 388.0,152.8 388.6,152.6 389.2,152.5 389.7,152.4 390.3,152.2 390.8,152.1 391.4,151.9 392.0,151.8 392.5,151.7 393.1,151.5 393.7,151.4 394.2,151.2 394.8,151.1 395.4,150.9 395.9,150.8 396.5,150.7 397.0,150.5 397.6,150.4 398.2,150.2 398.7,150.1 399.3,149.9 399.9,149.8 400.4,149.7 401.0,149.5 401.5,149.4 402.1,149.2 402.7,149.1 403.2,149.0 403.8,148.8 404.4,148.7 404.9,148.5 405.5,148.4 406.0,148.3 406.6,148.1 407.2,148.0 407.7,147.8 408.3,147.7 408.9,147.6 409.4,147.4 410.0,147.3 410.5,147.1 411.1,147.0 411.7,146.9 412.2,146.7 412.8,146.6 413.4,146.4 413.9,146.3 414.5,146.2 415.1,146.0 415.6,145.9 416.2,145.7 416.7,145.6 417.3,145.5 417.9,145.3 418.4,145.2 419.0,145.0 419.6,144.9 420.1,144.8 420.7,144.6 421.2,144.5 421.8,144.3 422.4,144.2 422.9,144.1 423.5,143.9 424.1,143.8 424.6,143.7 425.2,143.5 425.7,143.4 426.3,143.2 426.9,143.1 427.4,143.0 428.0,142.8 428.6,142.7 429.1,142.5 429.7,142.4 430.3,142.3 430.8,142.1 431.4,142.0 431.9,141.9 432.5,141.7 433.1,141.6 433.6,141.4 434.2,141.3 434.8,141.2 435.3,141.0 435.9,140.9 436.4,140.8 437.0,140.6 437.6,140.5 438.1,140.3 438.7,140.2 439.3,140.1 439.8,139.9 440.4,139.8 440.9,139.7 441.5,139.5 442.1,139.4 442.6,139.3 443.2,139.1 443.8,139.0 444.3,138.8 444.9,138.7 445.4,138.6 446.0,138.4 446.6,138.3 447.1,138.2 447.7,138.0 448.3,137.9 448.8,137.8 449.4,137.6 450.0,137.5 450.5,137.4 451.1,137.2 451.6,137.1 452.2,136.9 452.8,136.8 453.3,136.7 453.9,136.5 454.5,136.4 455.0,136.3 455.6,136.1 456.1,136.0 456.7,135.9 457.3,135.7 457.8,135.6 458.4,135.5 459.0,135.3 459.5,135.2 460.1,135.1 460.6,134.9 461.2,134.8 461.8,134.7 462.3,134.5 462.9,134.4 463.5,134.3 464.0,134.1 464.6,134.0 465.1,133.9 465.7,133.7 466.3,133.6 466.8,133.4 467.4,133.3 468.0,133.2 468.5,133.0 469.1,132.9 469.7,132.8 470.2,132.6 470.8,132.5 471.3,132.4 471.9,132.2 472.5,132.1 473.0,132.0 473.6,131.8 474.2,131.7 474.7,131.6 475.3,132.7 475.8,130.5 476.4,130.1 477.0,130.9 477.5,132.8 478.1,131.5 478.7,130.2 479.2,131.2 479.8,131.5 480.3,131.9 480.9,130.9 481.5,132.0 482.0,132.1 482.6,130.5 483.2,131.6 483.7,132.0 484.3,131.7 484.9,130.0 485.4,131.3 486.0,132.4 486.5,130.7 487.1,130.7 487.7,131.3 488.2,131.6 488.8,132.6 489.4,131.1 489.9,132.5 490.5,131.3 491.0,130.0 491.6,131.6 492.2,130.5 492.7,130.8 493.3,132.1 493.9,130.0 494.4,131.3 495.0,130.2 495.5,130.3 496.1,132.1 496.7,131.7 497.2,131.4 497.8,132.1 498.4,131.2 498.9,131.5 499.5,131.3 500.0,131.3 500.6,131.6 501.2,132.4 501.7,131.2 502.3,130.6 502.9,130.7 503.4,130.5 504.0,131.0 504.6,130.0 505.1,132.8 505.7,131.2 506.2,130.3 506.8,131.4 507.4,130.8 507.9,131.0 508.5,131.5 509.1,131.9 509.6,131.0 510.2,130.4 510.7,131.8 511.3,130.8 511.9,130.3 512.4,132.7 513.0,130.2 513.6,130.7 514.1,132.6 514.7,130.3 515.2,130.9 515.8,132.8 516.4,132.1 516.9,132.5 517.5,131.3 518.1,132.4 518.6,130.4 519.2,132.2 519.7,132.5 520.3,132.2 520.9,132.9 521.4,130.3 522.0,132.5 522.6,131.9 523.1,131.0 523.7,132.2 524.3,132.3 524.8,131.5 525.4,131.2 525.9,130.0 526.5,130.0 527.1,132.1 527.6,130.9 528.2,132.8 528.8,131.5 529.3,132.1 529.9,131.1 530.4,131.0 531.0,130.9 531.6,131.0 532.1,131.1 532.7,131.0 533.3,131.6 533.8,130.8 534.4,132.1 534.9,132.4 535.5,131.3 536.1,131.4 536.6,130.5 537.2,130.5 537.8,130.5 538.3,131.9 538.9,130.1 539.5,130.1 540.0,130.8 540.6,130.1 541.1,131.8 541.7,132.9 542.3,131.6 542.8,130.9 543.4,130.5 544.0,132.6 544.5,132.9 545.1,131.3 545.6,132.3 546.2,130.5 546.8,132.0 547.3,132.5 547.9,132.0 548.5,132.6 549.0,132.5 549.6,130.9 550.1,130.1 550.7,130.7 551.3,131.7 551.8,131.5 552.4,130.1 553.0,131.8 553.5,130.1 554.1,132.6 554.6,131.3 555.2,131.9 555.8,132.4 556.3,130.4 556.9,131.0 557.5,131.2 558.0,130.6 558.6,132.6 559.2,132.7 559.7,132.3 560.3,130.4 560.8,132.5 561.4,132.9 562.0,132.5 562.5,132.2 563.1,131.0 563.7,132.9 564.2,132.2 564.8,132.4 565.3,130.7 565.9,130.7 566.5,130.6 567.0,132.6 567.6,130.1 568.2,130.6 568.7,131.4 569.3,130.1 569.8,131.5 570.4,130.9 571.0,130.2 571.5,132.7 572.1,132.7 572.7,131.1 573.2,132.0 573.8,131.4 574.4,131.1 574.9,130.9 575.5,131.0 576.0,130.8 576.6,131.6 577.2,131.9 577.7,131.7 578.3,131.7 578.9,131.8 579.4,130.2 580.0,130.5 580.5,132.6 581.1,130.5 581.7,131.2 582.2,132.0 582.8,131.9 583.4,130.7 583.9,130.8 584.5,131.2 585.0,131.2 585.6,131.0 586.2,132.6 586.7,131.8 587.3,131.2 587.9,130.4 588.4,130.5 589.0,131.0 589.5,130.2 590.1,132.1 590.7,130.8 591.2,131.9 591.8,130.4 592.4,131.7 592.9,131.1 593.5,130.7 594.1,131.7 594.6,131.8 595.2,130.6 595.7,132.7 596.3,132.5 596.9,130.9 597.4,131.0 598.0,131.6 598.6,130.7 599.1,131.7 599.7,130.9 600.2,131.0 600.8,131.8 601.4,132.9 601.9,132.3 602.5,132.2 603.1,132.9 603.6,132.4 604.2,130.8 604.7,130.5 605.3,132.7 605.9,132.8 606.4,130.2 607.0,131.2 607.6,130.8 608.1,132.6 608.7,132.0 609.2,131.1 609.8,130.2 610.4,130.4 610.9,131.2 611.5,131.8 612.1,131.9 612.6,132.4 613.2,132.6 613.8,130.2 614.3,130.8 614.9,130.5 615.4,132.5 616.0,131.1 616.6,131.0 617.1,130.6 617.7,130.7 618.3,131.6 618.8,131.3 619.4,131.1 619.9,131.1 620.5,132.7 621.1,132.0 621.6,132.8 622.2,132.0 622.8,132.8 623.3,132.7 623.9,130.4 624.4,131.4 625.0,131.3 625.6,130.3 626.1,130.5 626.7,132.0 627.3,132.5 627.8,132.6 628.4,131.9 629.0,131.4 629.5,132.2 630.1,131.6 630.6,132.5 631.2,132.1 631.8,131.9 632.3,130.6 632.9,132.7 633.5,130.9 634.0,130.8 634.6,130.2 635.1,131.9 635.7,132.5 636.3,130.1 636.8,131.8 637.4,130.2 638.0,131.8 638.5,130.5 639.1,130.5 639.6,130.9 640.2,131.0 640.8,131.9 641.3,132.4 641.9,130.1 642.5,132.3 643.0,132.7 643.6,132.6 644.1,130.5 644.7,132.8 645.3,130.7 645.8,131.8 646.4,130.5 647.0,130.5 647.5,131.6 648.1,130.9 648.7,131.6 649.2,130.7 649.8,131.3 650.3,130.5 650.9,130.5 651.5,130.1 652.0,131.6 652.6,131.8 653.2,130.1 653.7,130.6 654.3,132.2 654.8,130.3 655.4,132.6 656.0,130.4 656.5,130.7 657.1,130.2 657.7,131.6 658.2,132.3 658.8,131.9 659.3,132.8 659.9,132.2 660.5,131.8 661.0,130.2 661.6,131.0 662.2,132.5 662.7,130.5 663.3,132.5 663.8,131.6 664.4,132.7 665.0,130.5 665.5,130.8 666.1,132.6 666.7,132.0 667.2,131.7 667.8,131.6 668.4,130.2 668.9,132.9 669.5,132.2 670.0,131.7 670.6,132.2 671.2,131.0 671.7,130.0 672.3,131.4 672.9,130.0 673.4,131.8 674.0,131.0 674.5,132.2 675.1,130.6 675.7,130.8 676.2,130.6 676.8,131.9 677.4,131.3 677.9,132.4 678.5,131.6 679.0,131.1 679.6,132.7 680.2,131.6 680.7,132.8 681.3,132.8 681.9,131.4 682.4,131.3 683.0,130.7 683.6,131.9 684.1,130.4 684.7,132.6 685.2,130.3 685.8,130.3 686.4,130.0 686.9,131.5 687.5,131.4 688.1,130.8 688.6,131.1 689.2,131.3 689.7,132.7 690.3,132.0 690.9,131.7 691.4,131.9 692.0,130.4 692.6,130.0 693.1,130.0 693.7,132.7 694.2,131.9 694.8,130.9 695.4,132.5 695.9,130.6 696.5,132.7 697.1,131.8 697.6,131.2 698.2,130.9 698.7,131.8 699.3,131.2 699.9,131.7 700.4,132.2 701.0,130.8 701.6,131.8 702.1,132.2 702.7,131.6 703.3,132.1 703.8,131.5 704.4,130.4 704.9,130.3 705.5,132.7 706.1,130.4 706.6,131.9 707.2,131.3 707.8,130.4 708.3,130.2 708.9,130.6 709.4,132.6 710.0,132.5 710.6,132.9 711.1,131.8 711.7,131.3 712.3,132.7 712.8,130.0 713.4,131.4 713.9,130.5 714.5,130.0 715.1,131.6 715.6,131.9 716.2,130.6 716.8,132.4 717.3,131.6 717.9,132.8 718.5,132.5 719.0,132.0 719.6,131.9 720.1,130.3 720.7,132.2 721.3,131.3 721.8,132.0 722.4,131.4 723.0,130.1 723.5,131.0 724.1,131.1 724.6,131.3 725.2,132.8 725.8,131.0 726.3,131.0 726.9,131.7 727.5,131.5 728.0,132.1 728.6,131.5 729.1,130.9 729.7,132.7 730.3,131.6 730.8,132.3 731.4,132.0 732.0,130.8 732.5,130.0 733.1,131.8 733.6,132.0 734.2,132.1 734.8,132.6 735.3,131.8 735.9,132.2 736.5,132.5 737.0,131.2 737.6,130.7 738.2,131.4 738.7,132.0 739.3,130.1 739.8,130.1 740.4,131.9 741.0,131.5 741.5,131.0 742.1,131.3 742.7,131.7 743.2,130.8 743.8,131.8 744.3,131.2 744.9,131.3 745.5,131.4 746.0,132.1 746.6,132.7 747.2,133.3 747.7,134.0 748.3,134.6 748.8,135.2 749.4,135.9 750.0,136.5 750.5,137.1 751.1,137.8 751.7,138.4 752.2,139.0 752.8,139.7 753.3,140.3 753.9,140.9 754.5,141.6 755.0,142.2 755.6,142.8 756.2,143.4 756.7,144.1 757.3,144.7 757.9,145.3 758.4,146.0 759.0,146.6 759.5,147.2 760.1,147.9 760.7,148.5 761.2,149.1 761.8,149.8 762.4,150.4 762.9,151.0 763.5,151.7 764.0,152.3 764.6,152.9 765.2,153.5 765.7,154.2 766.3,154.8 766.9,155.4 767.4,156.1 768.0,156.7 768.5,157.3 769.1,158.0 769.7,158.6 770.2,159.2 770.8,159.9 771.4,160.5 771.9,161.1 772.5,161.8 773.1,162.4 773.6,163.0 774.2,163.7 774.7,164.3 775.3,164.9 775.9,165.5 776.4,166.2 777.0,166.8 777.6,167.4 778.1,168.1 778.7,168.7 779.2,169.3 779.8,170.0 780.4,170.6 780.9,171.2 781.5,171.9 782.1,172.5 782.6,173.1 783.2,173.8 783.7,174.4 784.3,175.0 784.9,175.7 785.4,176.3 786.0,176.9 786.6,177.5 787.1,178.2 787.7,178.8 788.2,179.4 788.8,180.1 789.4,180.7 789.9,181.3 790.5,182.0 791.1,182.6 791.6,183.2 792.2,183.9 792.8,184.5 793.3,185.1 793.9,185.8 794.4,186.4 795.0,187.0 795.6,187.6 796.1,188.3 796.7,188.9 797.3,189.5 797.8,190.2 798.4,190.8 798.9,191.4 799.5,192.1 800.1,192.7 800.6,193.3 801.2,194.0 801.8,194.6 802.3,195.2 802.9,195.9 803.4,196.5 804.0,197.1 804.6,197.8 805.1,198.4 805.7,199.0 806.3,199.6 806.8,200.3 807.4,200.9 807.9,201.5 808.5,202.2 809.1,202.8 809.6,203.4 810.2,204.1 810.8,204.7 811.3,205.3 811.9,206.0 812.5,206.6 813.0,207.2 813.6,207.9 814.1,208.5 814.7,209.1 815.3,209.7 815.8,210.4 816.4,211.0 817.0,211.6 817.5,212.3 818.1,212.9 818.6,213.5 819.2,214.2 819.8,214.8 820.3,215.4 820.9,216.1 821.5,216.7 822.0,217.3 822.6,218.0 823.1,218.6 823.7,219.2 824.3,219.9 824.8,220.5 825.4,221.1 826.0,221.7 826.5,222.4 827.1,223.0 827.7,223.6 828.2,224.3 828.8,224.9 829.3,225.5 829.9,226.2 830.5,226.8 831.0,227.4 831.6,228.1 832.2,228.7 832.7,229.3 833.3,230.0 833.8,230.6 834.4,231.2 835.0,231.9 835.5,232.5 836.1,233.1 836.7,233.7 837.2,234.4 837.8,235.0 838.3,235.6 838.9,236.3 839.5,236.9 840.0,237.5 840.6,238.2 841.2,238.8 841.7,239.4 842.3,240.1 842.8,240.7 843.4,241.3 844.0,242.0 844.5,242.6 845.1,243.2 845.7,243.8 846.2,244.5 846.8,245.1 847.4,245.7 847.9,246.4 848.5,247.0 849.0,247.6 849.6,248.3 850.2,248.9 850.7,249.5 851.3,250.2 851.9,250.8 852.4,251.4 853.0,252.1 853.5,252.7 854.1,253.3 854.7,254.0 855.2,254.6 855.8,255.2 856.4,255.8 856.9,256.5 857.5,257.1 858.0,257.7 858.6,258.4 859.2,259.0 859.7,259.6 860.3,260.3 860.9,260.9 861.4,261.5 862.0,262.2 862.6,262.8 863.1,263.4 863.7,264.1 864.2,264.7 864.8,265.3 865.4,266.0 865.9,266.6 866.5,267.2 867.1,267.8 867.6,267.8 868.2,267.8 868.7,267.8 869.3,267.8 869.9,267.8 870.4,267.8 871.0,267.8 871.6,267.8 872.1,267.8 872.7,267.8 873.2,267.8 873.8,267.8 874.4,267.8 874.9,267.8 875.5,267.8 876.1,267.8 876.6,267.8 877.2,267.8 877.7,267.8 878.3,267.8 878.9,267.8 879.4,267.8 880.0,267.8 880.0,283.0" fill="#1d4ed8" opacity="0.12"/>
<polyline points="70.0,268.2 70.6,266.8 71.1,266.0 71.7,265.3 72.3,264.6 72.8,264.0 73.4,263.4 73.9,262.9 74.5,262.3 75.1,261.8 75.6,261.3 76.2,260.9 76.8,260.4 77.3,260.0 77.9,259.5 78.4,259.1 79.0,258.7 79.6,258.3 80.1,257.9 80.7,257.5 81.3,257.1 81.8,256.7 82.4,256.3 82.9,255.9 83.5,255.6 84.1,255.2 84.6,254.8 85.2,254.5 85.8,254.1 86.3,253.8 86.9,253.4 87.4,253.1 88.0,252.7 88.6,252.4 89.1,252.1 89.7,251.7 90.3,251.4 90.8,251.1 91.4,250.8 92.0,250.4 92.5,250.1 93.1,249.8 93.6,249.5 94.2,249.2 94.8,248.9 95.3,248.6 95.9,248.3 96.5,248.0 97.0,247.7 97.6,247.4 98.1,247.1 98.7,246.8 99.3,246.5 99.8,246.2 100.4,245.9 101.0,245.6 101.5,245.3 102.1,245.0 102.6,244.7 103.2,244.5 103.8,244.2 104.3,243.9 104.9,243.6 105.5,243.3 106.0,243.1 106.6,242.8 107.2,242.5 107.7,242.3 108.3,242.0 108.8,241.7 109.4,241.4 110.0,241.2 110.5,240.9 111.1,240.6 111.7,240.4 112.2,240.1 112.8,239.9 113.3,239.6 113.9,239.3 114.5,239.1 115.0,238.8 115.6,238.6 116.2,238.3 116.7,238.1 117.3,237.8 117.8,237.6 118.4,237.3 119.0,237.0 119.5,236.8 120.1,236.6 120.7,236.3 121.2,236.1 121.8,235.8 122.3,235.6 122.9,235.3 123.5,235.1 124.0,234.8 124.6,234.6 125.2,234.3 125.7,234.1 126.3,233.9 126.9,233.6 127.4,233.4 128.0,233.1 128.5,232.9 129.1,232.7 129.7,232.4 130.2,232.2 130.8,232.0 131.4,231.7 131.9,231.5 132.5,231.3 133.0,231.0 133.6,230.8 134.2,230.6 134.7,230.3 135.3,230.1 135.9,229.9 136.4,229.6 137.0,229.4 137.5,229.2 138.1,229.0 138.7,228.7 139.2,228.5 139.8,228.3 140.4,228.1 140.9,227.8 141.5,227.6 142.1,227.4 142.6,227.2 143.2,226.9 143.7,226.7 144.3,226.5 144.9,226.3 145.4,226.1 146.0,225.8 146.6,225.6 147.1,225.4 147.7,225.2 148.2,225.0 148.8,224.7 149.4,224.5 149.9,224.3 150.5,224.1 151.1,223.9 151.6,223.7 152.2,223.4 152.7,223.2 153.3,223.0 153.9,222.8 154.4,222.6 155.0,222.4 155.6,222.2 156.1,222.0 156.7,221.7 157.2,221.5 157.8,221.3 158.4,221.1 158.9,220.9 159.5,220.7 160.1,220.5 160.6,220.3 161.2,220.1 161.8,219.9 162.3,219.7 162.9,219.4 163.4,219.2 164.0,219.0 164.6,218.8 165.1,218.6 165.7,218.4 166.3,218.2 166.8,218.0 167.4,217.8 167.9,217.6 168.5,217.4 169.1,217.2 169.6,217.0 170.2,216.8 170.8,216.6 171.3,216.4 171.9,216.2 172.4,216.0 173.0,215.8 173.6,215.6 174.1,215.4 174.7,215.2 175.3,215.0 175.8,214.8 176.4,214.6 176.9,214.4 177.5,214.2 178.1,214.0 178.6,213.8 179.2,213.6 179.8,213.4 180.3,213.2 180.9,213.0 181.5,212.8 182.0,212.6 182.6,212.4 183.1,212.2 183.7,212.0 184.3,211.8 184.8,211.6 185.4,211.4 186.0,211.2 186.5,211.1 187.1,210.9 187.6,210.7 188.2,210.5 188.8,210.3 189.3,210.1 189.9,209.9 190.5,209.7 191.0,209.5 191.6,209.3 192.1,209.1 192.7,208.9 193.3,208.8 193.8,208.6 194.4,208.4 195.0,208.2 195.5,208.0 196.1,207.8 196.7,207.6 197.2,207.4 197.8,207.2 198.3,207.1 198.9,206.9 199.5,206.7 200.0,206.5 200.6,206.3 201.2,206.1 201.7,205.9 202.3,205.7 202.8,205.6 203.4,205.4 204.0,205.2 204.5,205.0 205.1,204.8 205.7,204.6 206.2,204.5 206.8,204.3 207.3,204.1 207.9,203.9 208.5,203.7 209.0,203.5 209.6,203.3 210.2,203.2 210.7,203.0 211.3,202.8 211.8,202.6 212.4,202.4 213.0,202.3 213.5,202.1 214.1,201.9 214.7,201.7 215.2,201.5 215.8,201.3 216.4,201.2 216.9,201.0 217.5,200.8 218.0,200.6 218.6,200.4 219.2,200.3 219.7,200.1 220.3,199.9 220.9,199.7 221.4,199.6 222.0,199.4 222.5,199.2 223.1,199.0 223.7,198.8 224.2,198.7 224.8,198.5 225.4,198.3 225.9,198.1 226.5,198.0 227.0,197.8 227.6,197.6 228.2,197.4 228.7,197.2 229.3,197.1 229.9,196.9 230.4,196.7 231.0,196.5 231.5,196.4 232.1,196.2 232.7,196.0 233.2,195.8 233.8,195.7 234.4,195.5 234.9,195.3 235.5,195.1 236.1,195.0 236.6,194.8 237.2,194.6 237.7,194.5 238.3,194.3 238.9,194.1 239.4,193.9 240.0,193.8 240.6,193.6 241.1,193.4 241.7,193.2 242.2,193.1 242.8,192.9 243.4,192.7 243.9,192.6 244.5,192.4 245.1,192.2 245.6,192.0 246.2,191.9 246.7,191.7 247.3,191.5 247.9,191.4 248.4,191.2 249.0,191.0 249.6,190.9 250.1,190.7 250.7,190.5 251.3,190.3 251.8,190.2 252.4,190.0 252.9,189.8 253.5,189.7 254.1,189.5 254.6,189.3 255.2,189.2 255.8,189.0 256.3,188.8 256.9,188.7 257.4,188.5 258.0,188.3 258.6,188.2 259.1,188.0 259.7,187.8 260.3,187.7 260.8,187.5 261.4,187.3 261.9,187.2 262.5,187.0 263.1,186.8 263.6,186.7 264.2,186.5 264.8,186.3 265.3,186.2 265.9,186.0 266.4,185.8 267.0,185.7 267.6,185.5 268.1,185.3 268.7,185.2 269.3,185.0 269.8,184.8 270.4,184.7 271.0,184.5 271.5,184.3 272.1,184.2 272.6,184.0 273.2,183.9 273.8,183.7 274.3,183.5 274.9,183.4 275.5,183.2 276.0,183.0 276.6,182.9 277.1,182.7 277.7,182.6 278.3,182.4 278.8,182.2 279.4,182.1 280.0,181.9 280.5,181.7 281.1,181.6 281.6,181.4 282.2,181.3 282.8,181.1 283.3,180.9 283.9,180.8 284.5,180.6 285.0,180.5 285.6,180.3 286.2,180.1 286.7,180.0 287.3,179.8 287.8,179.6 288.4,179.5 289.0,179.3 289.5,179.2 290.1,179.0 290.7,178.8 291.2,178.7 291.8,178.5 292.3,178.4 292.9,178.2 293.5,178.1 294.0,177.9 294.6,177.7 295.2,177.6 295.7,177.4 296.3,177.3 296.8,177.1 297.4,176.9 298.0,176.8 298.5,176.6 299.1,176.5 299.7,176.3 300.2,176.2 300.8,176.0 301.3,175.8 301.9,175.7 302.5,175.5 303.0,175.4 303.6,175.2 304.2,175.1 304.7,174.9 305.3,174.7 305.9,174.6 306.4,174.4 307.0,174.3 307.5,174.1 308.1,174.0 308.7,173.8 309.2,173.6 309.8,173.5 310.4,173.3 310.9,173.2 311.5,173.0 312.0,172.9 312.6,172.7 313.2,172.6 313.7,172.4 314.3,172.3 314.9,172.1 315.4,171.9 316.0,171.8 316.5,171.6 317.1,171.5 317.7,171.3 318.2,171.2 318.8,171.0 319.4,170.9 319.9,170.7 320.5,170.6 321.0,170.4 321.6,170.2 322.2,170.1 322.7,169.9 323.3,169.8 323.9,169.6 324.4,169.5 325.0,169.3 325.6,169.2 326.1,169.0 326.7,168.9 327.2,168.7 327.8,168.6 328.4,168.4 328.9,168.3 329.5,168.1 330.1,168.0 330.6,167.8 331.2,167.7 331.7,167.5 332.3,167.4 332.9,167.2 333.4,167.0 334.0,166.9 334.6,166.7 335.1,166.6 335.7,166.4 336.2,166.3 336.8,166.1 337.4,166.0 337.9,165.8 338.5,165.7 339.1,165.5 339.6,165.4 340.2,165.2 340.8,165.1 341.3,164.9 341.9,164.8 342.4,164.6 343.0,164.5 343.6,164.3 344.1,164.2 344.7,164.0 345.3,163.9 345.8,163.7 346.4,163.6 346.9,163.4 347.5,163.3 348.1,163.1 348.6,163.0 349.2,162.8 349.8,162.7 350.3,162.6 350.9,162.4 351.4,162.3 352.0,162.1 352.6,162.0 353.1,161.8 353.7,161.7 354.3,161.5 354.8,161.4 355.4,161.2 355.9,161.1 356.5,160.9 357.1,160.8 357.6,160.6 358.2,160.5 358.8,160.3 359.3,160.2 359.9,160.0 360.5,159.9 361.0,159.7 361.6,159.6 362.1,159.5 362.7,159.3 363.3,159.2 363.8,159.0 364.4,158.9 365.0,158.7 365.5,158.6 366.1,158.4 366.6,158.3 367.2,158.1 367.8,158.0 368.3,157.8 368.9,157.7 369.5,157.6 370.0,157.4 370.6,157.3 371.1,157.1 371.7,157.0 372.3,156.8 372.8,156.7 373.4,156.5 374.0,156.4 374.5,156.2 375.1,156.1 375.6,156.0 376.2,155.8 376.8,155.7 377.3,155.5 377.9,155.4 378.5,155.2 379.0,155.1 379.6,154.9 380.2,154.8 380.7,154.7 381.3,154.5 381.8,154.4 382.4,154.2 383.0,154.1 383.5,153.9 384.1,153.8 384.7,153.7 385.2,153.5 385.8,153.4 386.3,153.2 386.9,153.1 387.5,152.9 388.0,152.8 388.6,152.6 389.2,152.5 389.7,152.4 390.3,152.2 390.8,152.1 391.4,151.9 392.0,151.8 392.5,151.7 393.1,151.5 393.7,151.4 394.2,151.2 394.8,151.1 395.4,150.9 395.9,150.8 396.5,150.7 397.0,150.5 397.6,150.4 398.2,150.2 398.7,150.1 399.3,149.9 399.9,149.8 400.4,149.7 401.0,149.5 401.5,149.4 402.1,149.2 402.7,149.1 403.2,149.0 403.8,148.8 404.4,148.7 404.9,148.5 405.5,148.4 406.0,148.3 406.6,148.1 407.2,148.0 407.7,147.8 408.3,147.7 408.9,147.6 409.4,147.4 410.0,147.3 410.5,147.1 411.1,147.0 411.7,146.9 412.2,146.7 412.8,146.6 413.4,146.4 413.9,146.3 414.5,146.2 415.1,146.0 415.6,145.9 416.2,145.7 416.7,145.6 417.3,145.5 417.9,145.3 418.4,145.2 419.0,145.0 419.6,144.9 420.1,144.8 420.7,144.6 421.2,144.5 421.8,144.3 422.4,144.2 422.9,144.1 423.5,143.9 424.1,143.8 424.6,143.7 425.2,143.5 425.7,143.4 426.3,143.2 426.9,143.1 427.4,143.0 428.0,142.8 428.6,142.7 429.1,142.5 429.7,142.4 430.3,142.3 430.8,142.1 431.4,142.0 431.9,141.9 432.5,141.7 433.1,141.6 433.6,141.4 434.2,141.3 434.8,141.2 435.3,141.0 435.9,140.9 436.4,140.8 437.0,140.6 437.6,140.5 438.1,140.3 438.7,140.2 439.3,140.1 439.8,139.9 440.4,139.8 440.9,139.7 441.5,139.5 442.1,139.4 442.6,139.3 443.2,139.1 443.8,139.0 444.3,138.8 444.9,138.7 445.4,138.6 446.0,138.4 446.6,138.3 447.1,138.2 447.7,138.0 448.3,137.9 448.8,137.8 449.4,137.6 450.0,137.5 450.5,137.4 451.1,137.2 451.6,137.1 452.2,136.9 452.8,136.8 453.3,136.7 453.9,136.5 454.5,136.4 455.0,136.3 455.6,136.1 456.1,136.0 456.7,135.9 457.3,135.7 457.8,135.6 458.4,135.5 459.0,135.3 459.5,135.2 460.1,135.1 460.6,134.9 461.2,134.8 461.8,134.7 462.3,134.5 462.9,134.4 463.5,134.3 464.0,134.1 464.6,134.0 465.1,133.9 465.7,133.7 466.3,133.6 466.8,133.4 467.4,133.3 468.0,133.2 468.5,133.0 469.1,132.9 469.7,132.8 470.2,132.6 470.8,132.5 471.3,132.4 471.9,132.2 472.5,132.1 473.0,132.0 473.6,131.8 474.2,131.7 474.7,131.6 475.3,132.7 475.8,130.5 476.4,130.1 477.0,130.9 477.5,132.8 478.1,131.5 478.7,130.2 479.2,131.2 479.8,131.5 480.3,131.9 480.9,130.9 481.5,132.0 482.0,132.1 482.6,130.5 483.2,131.6 483.7,132.0 484.3,131.7 484.9,130.0 485.4,131.3 486.0,132.4 486.5,130.7 487.1,130.7 487.7,131.3 488.2,131.6 488.8,132.6 489.4,131.1 489.9,132.5 490.5,131.3 491.0,130.0 491.6,131.6 492.2,130.5 492.7,130.8 493.3,132.1 493.9,130.0 494.4,131.3 495.0,130.2 495.5,130.3 496.1,132.1 496.7,131.7 497.2,131.4 497.8,132.1 498.4,131.2 498.9,131.5 499.5,131.3 500.0,131.3 500.6,131.6 501.2,132.4 501.7,131.2 502.3,130.6 502.9,130.7 503.4,130.5 504.0,131.0 504.6,130.0 505.1,132.8 505.7,131.2 506.2,130.3 506.8,131.4 507.4,130.8 507.9,131.0 508.5,131.5 509.1,131.9 509.6,131.0 510.2,130.4 510.7,131.8 511.3,130.8 511.9,130.3 512.4,132.7 513.0,130.2 513.6,130.7 514.1,132.6 514.7,130.3 515.2,130.9 515.8,132.8 516.4,132.1 516.9,132.5 517.5,131.3 518.1,132.4 518.6,130.4 519.2,132.2 519.7,132.5 520.3,132.2 520.9,132.9 521.4,130.3 522.0,132.5 522.6,131.9 523.1,131.0 523.7,132.2 524.3,132.3 524.8,131.5 525.4,131.2 525.9,130.0 526.5,130.0 527.1,132.1 527.6,130.9 528.2,132.8 528.8,131.5 529.3,132.1 529.9,131.1 530.4,131.0 531.0,130.9 531.6,131.0 532.1,131.1 532.7,131.0 533.3,131.6 533.8,130.8 534.4,132.1 534.9,132.4 535.5,131.3 536.1,131.4 536.6,130.5 537.2,130.5 537.8,130.5 538.3,131.9 538.9,130.1 539.5,130.1 540.0,130.8 540.6,130.1 541.1,131.8 541.7,132.9 542.3,131.6 542.8,130.9 543.4,130.5 544.0,132.6 544.5,132.9 545.1,131.3 545.6,132.3 546.2,130.5 546.8,132.0 547.3,132.5 547.9,132.0 548.5,132.6 549.0,132.5 549.6,130.9 550.1,130.1 550.7,130.7 551.3,131.7 551.8,131.5 552.4,130.1 553.0,131.8 553.5,130.1 554.1,132.6 554.6,131.3 555.2,131.9 555.8,132.4 556.3,130.4 556.9,131.0 557.5,131.2 558.0,130.6 558.6,132.6 559.2,132.7 559.7,132.3 560.3,130.4 560.8,132.5 561.4,132.9 562.0,132.5 562.5,132.2 563.1,131.0 563.7,132.9 564.2,132.2 564.8,132.4 565.3,130.7 565.9,130.7 566.5,130.6 567.0,132.6 567.6,130.1 568.2,130.6 568.7,131.4 569.3,130.1 569.8,131.5 570.4,130.9 571.0,130.2 571.5,132.7 572.1,132.7 572.7,131.1 573.2,132.0 573.8,131.4 574.4,131.1 574.9,130.9 575.5,131.0 576.0,130.8 576.6,131.6 577.2,131.9 577.7,131.7 578.3,131.7 578.9,131.8 579.4,130.2 580.0,130.5 580.5,132.6 581.1,130.5 581.7,131.2 582.2,132.0 582.8,131.9 583.4,130.7 583.9,130.8 584.5,131.2 585.0,131.2 585.6,131.0 586.2,132.6 586.7,131.8 587.3,131.2 587.9,130.4 588.4,130.5 589.0,131.0 589.5,130.2 590.1,132.1 590.7,130.8 591.2,131.9 591.8,130.4 592.4,131.7 592.9,131.1 593.5,130.7 594.1,131.7 594.6,131.8 595.2,130.6 595.7,132.7 596.3,132.5 596.9,130.9 597.4,131.0 598.0,131.6 598.6,130.7 599.1,131.7 599.7,130.9 600.2,131.0 600.8,131.8 601.4,132.9 601.9,132.3 602.5,132.2 603.1,132.9 603.6,132.4 604.2,130.8 604.7,130.5 605.3,132.7 605.9,132.8 606.4,130.2 607.0,131.2 607.6,130.8 608.1,132.6 608.7,132.0 609.2,131.1 609.8,130.2 610.4,130.4 610.9,131.2 611.5,131.8 612.1,131.9 612.6,132.4 613.2,132.6 613.8,130.2 614.3,130.8 614.9,130.5 615.4,132.5 616.0,131.1 616.6,131.0 617.1,130.6 617.7,130.7 618.3,131.6 618.8,131.3 619.4,131.1 619.9,131.1 620.5,132.7 621.1,132.0 621.6,132.8 622.2,132.0 622.8,132.8 623.3,132.7 623.9,130.4 624.4,131.4 625.0,131.3 625.6,130.3 626.1,130.5 626.7,132.0 627.3,132.5 627.8,132.6 628.4,131.9 629.0,131.4 629.5,132.2 630.1,131.6 630.6,132.5 631.2,132.1 631.8,131.9 632.3,130.6 632.9,132.7 633.5,130.9 634.0,130.8 634.6,130.2 635.1,131.9 635.7,132.5 636.3,130.1 636.8,131.8 637.4,130.2 638.0,131.8 638.5,130.5 639.1,130.5 639.6,130.9 640.2,131.0 640.8,131.9 641.3,132.4 641.9,130.1 642.5,132.3 643.0,132.7 643.6,132.6 644.1,130.5 644.7,132.8 645.3,130.7 645.8,131.8 646.4,130.5 647.0,130.5 647.5,131.6 648.1,130.9 648.7,131.6 649.2,130.7 649.8,131.3 650.3,130.5 650.9,130.5 651.5,130.1 652.0,131.6 652.6,131.8 653.2,130.1 653.7,130.6 654.3,132.2 654.8,130.3 655.4,132.6 656.0,130.4 656.5,130.7 657.1,130.2 657.7,131.6 658.2,132.3 658.8,131.9 659.3,132.8 659.9,132.2 660.5,131.8 661.0,130.2 661.6,131.0 662.2,132.5 662.7,130.5 663.3,132.5 663.8,131.6 664.4,132.7 665.0,130.5 665.5,130.8 666.1,132.6 666.7,132.0 667.2,131.7 667.8,131.6 668.4,130.2 668.9,132.9 669.5,132.2 670.0,131.7 670.6,132.2 671.2,131.0 671.7,130.0 672.3,131.4 672.9,130.0 673.4,131.8 674.0,131.0 674.5,132.2 675.1,130.6 675.7,130.8 676.2,130.6 676.8,131.9 677.4,131.3 677.9,132.4 678.5,131.6 679.0,131.1 679.6,132.7 680.2,131.6 680.7,132.8 681.3,132.8 681.9,131.4 682.4,131.3 683.0,130.7 683.6,131.9 684.1,130.4 684.7,132.6 685.2,130.3 685.8,130.3 686.4,130.0 686.9,131.5 687.5,131.4 688.1,130.8 688.6,131.1 689.2,131.3 689.7,132.7 690.3,132.0 690.9,131.7 691.4,131.9 692.0,130.4 692.6,130.0 693.1,130.0 693.7,132.7 694.2,131.9 694.8,130.9 695.4,132.5 695.9,130.6 696.5,132.7 697.1,131.8 697.6,131.2 698.2,130.9 698.7,131.8 699.3,131.2 699.9,131.7 700.4,132.2 701.0,130.8 701.6,131.8 702.1,132.2 702.7,131.6 703.3,132.1 703.8,131.5 704.4,130.4 704.9,130.3 705.5,132.7 706.1,130.4 706.6,131.9 707.2,131.3 707.8,130.4 708.3,130.2 708.9,130.6 709.4,132.6 710.0,132.5 710.6,132.9 711.1,131.8 711.7,131.3 712.3,132.7 712.8,130.0 713.4,131.4 713.9,130.5 714.5,130.0 715.1,131.6 715.6,131.9 716.2,130.6 716.8,132.4 717.3,131.6 717.9,132.8 718.5,132.5 719.0,132.0 719.6,131.9 720.1,130.3 720.7,132.2 721.3,131.3 721.8,132.0 722.4,131.4 723.0,130.1 723.5,131.0 724.1,131.1 724.6,131.3 725.2,132.8 725.8,131.0 726.3,131.0 726.9,131.7 727.5,131.5 728.0,132.1 728.6,131.5 729.1,130.9 729.7,132.7 730.3,131.6 730.8,132.3 731.4,132.0 732.0,130.8 732.5,130.0 733.1,131.8 733.6,132.0 734.2,132.1 734.8,132.6 735.3,131.8 735.9,132.2 736.5,132.5 737.0,131.2 737.6,130.7 738.2,131.4 738.7,132.0 739.3,130.1 739.8,130.1 740.4,131.9 741.0,131.5 741.5,131.0 742.1,131.3 742.7,131.7 743.2,130.8 743.8,131.8 744.3,131.2 744.9,131.3 745.5,131.4 746.0,132.1 746.6,132.7 747.2,133.3 747.7,134.0 748.3,134.6 748.8,135.2 749.4,135.9 750.0,136.5 750.5,137.1 751.1,137.8 751.7,138.4 752.2,139.0 752.8,139.7 753.3,140.3 753.9,140.9 754.5,141.6 755.0,142.2 755.6,142.8 756.2,143.4 756.7,144.1 757.3,144.7 757.9,145.3 758.4,146.0 759.0,146.6 759.5,147.2 760.1,147.9 760.7,148.5 761.2,149.1 761.8,149.8 762.4,150.4 762.9,151.0 763.5,151.7 764.0,152.3 764.6,152.9 765.2,153.5 765.7,154.2 766.3,154.8 766.9,155.4 767.4,156.1 768.0,156.7 768.5,157.3 769.1,158.0 769.7,158.6 770.2,159.2 770.8,159.9 771.4,160.5 771.9,161.1 772.5,161.8 773.1,162.4 773.6,163.0 774.2,163.7 774.7,164.3 775.3,164.9 775.9,165.5 776.4,166.2 777.0,166.8 777.6,167.4 778.1,168.1 778.7,168.7 779.2,169.3 779.8,170.0 780.4,170.6 780.9,171.2 781.5,171.9 782.1,172.5 782.6,173.1 783.2,173.8 783.7,174.4 784.3,175.0 784.9,175.7 785.4,176.3 786.0,176.9 786.6,177.5 787.1,178.2 787.7,178.8 788.2,179.4 788.8,180.1 789.4,180.7 789.9,181.3 790.5,182.0 791.1,182.6 791.6,183.2 792.2,183.9 792.8,184.5 793.3,185.1 793.9,185.8 794.4,186.4 795.0,187.0 795.6,187.6 796.1,188.3 796.7,188.9 797.3,189.5 797.8,190.2 798.4,190.8 798.9,191.4 799.5,192.1 800.1,192.7 800.6,193.3 801.2,194.0 801.8,194.6 802.3,195.2 802.9,195.9 803.4,196.5 804.0,197.1 804.6,197.8 805.1,198.4 805.7,199.0 806.3,199.6 806.8,200.3 807.4,200.9 807.9,201.5 808.5,202.2 809.1,202.8 809.6,203.4 810.2,204.1 810.8,204.7 811.3,205.3 811.9,206.0 812.5,206.6 813.0,207.2 813.6,207.9 814.1,208.5 814.7,209.1 815.3,209.7 815.8,210.4 816.4,211.0 817.0,211.6 817.5,212.3 818.1,212.9 818.6,213.5 819.2,214.2 819.8,214.8 820.3,215.4 820.9,216.1 821.5,216.7 822.0,217.3 822.6,218.0 823.1,218.6 823.7,219.2 824.3,219.9 824.8,220.5 825.4,221.1 826.0,221.7 826.5,222.4 827.1,223.0 827.7,223.6 828.2,224.3 828.8,224.9 829.3,225.5 829.9,226.2 830.5,226.8 831.0,227.4 831.6,228.1 832.2,228.7 832.7,229.3 833.3,230.0 833.8,230.6 834.4,231.2 835.0,231.9 835.5,232.5 836.1,233.1 836.7,233.7 837.2,234.4 837.8,235.0 838.3,235.6 838.9,236.3 839.5,236.9 840.0,237.5 840.6,238.2 841.2,238.8 841.7,239.4 842.3,240.1 842.8,240.7 843.4,241.3 844.0,242.0 844.5,242.6 845.1,243.2 845.7,243.8 846.2,244.5 846.8,245.1 847.4,245.7 847.9,246.4 848.5,247.0 849.0,247.6 849.6,248.3 850.2,248.9 850.7,249.5 851.3,250.2 851.9,250.8 852.4,251.4 853.0,252.1 853.5,252.7 854.1,253.3 854.7,254.0 855.2,254.6 855.8,255.2 856.4,255.8 856.9,256.5 857.5,257.1 858.0,257.7 858.6,258.4 859.2,259.0 859.7,259.6 860.3,260.3 860.9,260.9 861.4,261.5 862.0,262.2 862.6,262.8 863.1,263.4 863.7,264.1 864.2,264.7 864.8,265.3 865.4,266.0 865.9,266.6 866.5,267.2 867.1,267.8 867.6,267.8 868.2,267.8 868.7,267.8 869.3,267.8 869.9,267.8 870.4,267.8 871.0,267.8 871.6,267.8 872.1,267.8 872.7,267.8 873.2,267.8 873.8,267.8 874.4,267.8 874.9,267.8 875.5,267.8 876.1,267.8 876.6,267.8 877.2,267.8 877.7,267.8 878.3,267.8 878.9,267.8 879.4,267.8 880.0,267.8" fill="none" stroke="#1d4ed8" stroke-width="1.5"/>
<text x="475.0" y="86" text-anchor="middle" font-size="13" font-weight="bold" fill="#333">RSS (MiB)</text>
<rect x="70" y="368" width="810" height="185" fill="#fafafa" stroke="#ddd"/>
<line x1="70" y1="553.0" x2="880" y2="553.0" stroke="#eee" stroke-width="0.5"/>
<text x="62" y="557.0" text-anchor="end" font-size="11" fill="#666">0</text>
<line x1="70" y1="516.0" x2="880" y2="516.0" stroke="#eee" stroke-width="0.5"/>
<text x="62" y="520.0" text-anchor="end" font-size="11" fill="#666">100</text>
<line x1="70" y1="479.0" x2="880" y2="479.0" stroke="#eee" stroke-width="0.5"/>
<text x="62" y="483.0" text-anchor="end" font-size="11" fill="#666">200</text>
<line x1="70" y1="442.0" x2="880" y2="442.0" stroke="#eee" stroke-width="0.5"/>
<text x="62" y="446.0" text-anchor="end" font-size="11" fill="#666">300</text>
<line x1="70" y1="405.0" x2="880" y2="405.0" stroke="#eee" stroke-width="0.5"/>
<text x="62" y="409.0" text-anchor="end" font-size="11" fill="#666">400</text>
<line x1="70" y1="368.0" x2="880" y2="368.0" stroke="#eee" stroke-width="0.5"/>
<text x="62" y="372.0" text-anchor="end" font-size="11" fill="#666">500</text>
<text x="70.0" y="573" text-anchor="middle" font-size="11" fill="#666">0m</text>
<text x="171.3" y="573" text-anchor="middle" font-size="11" fill="#666">15m</text>
<text x="272.6" y="573" text-anchor="middle" font-size="11" fill="#666">30m</text>
<text x="374.0" y="573" text-anchor="middle" font-size="11" fill="#666">45m</text>
<text x="475.3" y="573" text-anchor="middle" font-size="11" fill="#666">60m</text>
<text x="576.6" y="573" text-anchor="middle" font-size="11" fill="#666">75m</text>
<text x="677.9" y="573" text-anchor="middle" font-size="11" fill="#666">90m</text>
<text x="779.2" y="573" text-anchor="middle" font-size="11" fill="#666">105m</text>
<text x="880.0" y="573" text-anchor="middle" font-size="11" fill="#666">120m</text>
<polygon points="70.0,553.0 70.0,422.0 70.6,428.3 71.1,425.0 71.7,425.1 72.3,418.9 72.8,419.1 73.4,416.3 73.9,424.7 74.5,420.5 75.1,424.4 75.6,421.8 76.2,418.2 76.8,423.0 77.3,420.7 77.9,415.2 78.4,415.9 79.0,419.1 79.6,414.5 80.1,411.7 80.7,420.2 81.3,410.9 81.8,411.6 82.4,415.2 82.9,416.8 83.5,407.5 84.1,414.1 84.6,416.4 85.2,416.0 85.8,407.3 86.3,409.6 86.9,407.0 87.4,407.5 88.0,409.4 88.6,404.2 89.1,410.5 89.7,408.2 90.3,404.9 90.8,406.9 91.4,404.0 92.0,406.9 92.5,405.2 93.1,412.3 93.6,410.0 94.2,409.1 94.8,411.3 95.3,409.4 95.9,410.7 96.5,408.5 97.0,404.4 97.6,407.3 98.1,407.1 98.7,408.7 99.3,408.0 99.8,400.5 100.4,403.6 101.0,403.9 101.5,408.8 102.1,402.5 102.6,408.8 103.2,406.3 103.8,399.6 104.3,403.5 104.9,404.4 105.5,403.0 106.0,401.3 106.6,402.1 107.2,408.2 107.7,410.5 108.3,407.5 108.8,408.1 109.4,408.8 110.0,400.8 110.5,401.7 111.1,408.1 111.7,404.5 112.2,407.6 112.8,402.0 113.3,407.3 113.9,409.6 114.5,410.1 115.0,406.8 115.6,410.4 116.2,407.0 116.7,403.8 117.3,409.7 117.8,411.9 118.4,403.6 119.0,409.3 119.5,414.3 120.1,415.1 120.7,414.8 121.2,409.4 121.8,407.9 122.3,412.3 122.9,416.7 123.5,413.6 124.0,407.1 124.6,412.7 125.2,408.2 125.7,409.8 126.3,419.7 126.9,412.2 127.4,413.1 128.0,415.1 128.5,418.6 129.1,414.9 129.7,421.2 130.2,418.0 130.8,418.3 131.4,413.2 131.9,414.5 132.5,421.8 133.0,419.6 133.6,423.7 134.2,416.0 134.7,417.0 135.3,423.8 135.9,420.5 136.4,421.3 137.0,426.9 137.5,420.6 138.1,422.6 138.7,419.4 139.2,421.7 139.8,427.1 140.4,423.0 140.9,425.9 141.5,415.4 142.1,415.4 142.6,415.5 143.2,420.8 143.7,423.2 144.3,413.6 144.9,412.4 145.4,421.5 146.0,416.6 146.6,420.8 147.1,412.6 147.7,412.2 148.2,418.8 148.8,414.5 149.4,413.3 149.9,416.0 150.5,408.9 151.1,413.5 151.6,415.4 152.2,411.4 152.7,408.9 153.3,414.4 153.9,412.9 154.4,404.9 155.0,408.4 155.6,410.4 156.1,409.2 156.7,413.3 157.2,411.9 157.8,410.3 158.4,407.3 158.9,411.0 159.5,410.8 160.1,412.2 160.6,405.8 161.2,410.0 161.8,402.3 162.3,402.6 162.9,411.2 163.4,409.1 164.0,404.2 164.6,409.1 165.1,409.8 165.7,400.8 166.3,404.7 166.8,405.7 167.4,402.2 167.9,401.8 168.5,408.6 169.1,409.6 169.6,405.8 170.2,405.9 170.8,405.4 171.3,402.5 171.9,403.1 172.4,399.6 173.0,409.5 173.6,406.2 174.1,406.9 174.7,401.2 175.3,408.1 175.8,408.8 176.4,406.1 176.9,406.5 177.5,408.2 178.1,408.7 178.6,401.4 179.2,406.9 179.8,402.4 180.3,406.0 180.9,411.8 181.5,401.5 182.0,403.5 182.6,402.3 183.1,403.0 183.7,404.1 184.3,412.0 184.8,408.7 185.4,412.0 186.0,410.2 186.5,414.3 187.1,411.1 187.6,404.7 188.2,413.0 188.8,407.6 189.3,411.6 189.9,412.3 190.5,406.8 191.0,406.7 191.6,412.0 192.1,410.6 192.7,417.3 193.3,416.1 193.8,409.0 194.4,413.8 195.0,414.6 195.5,412.8 196.1,420.9 196.7,415.5 197.2,416.8 197.8,413.4 198.3,421.6 198.9,413.1 199.5,423.4 200.0,422.7 200.6,418.6 201.2,418.2 201.7,423.5 202.3,425.3 202.8,417.2 203.4,424.9 204.0,421.5 204.5,421.7 205.1,424.4 205.7,422.1 206.2,422.3 206.8,417.2 207.3,424.9 207.9,418.7 208.5,423.5 209.0,421.3 209.6,417.7 210.2,421.4 210.7,420.8 211.3,415.4 211.8,422.5 212.4,417.8 213.0,411.3 213.5,410.9 214.1,420.7 214.7,418.7 215.2,417.7 215.8,409.9 216.4,410.0 216.9,409.6 217.5,414.9 218.0,416.8 218.6,408.9 219.2,410.0 219.7,410.6 220.3,406.1 220.9,409.4 221.4,416.2 222.0,406.9 222.5,412.3 223.1,407.9 223.7,404.6 224.2,413.2 224.8,413.1 225.4,412.9 225.9,407.7 226.5,410.5 227.0,406.6 227.6,405.1 228.2,410.5 228.7,405.5 229.3,409.4 229.9,406.7 230.4,401.9 231.0,402.4 231.5,410.6 232.1,406.8 232.7,408.2 233.2,411.1 233.8,402.5 234.4,403.9 234.9,408.0 235.5,402.6 236.1,404.6 236.6,405.9 237.2,410.5 237.7,409.7 238.3,400.8 238.9,400.5 239.4,404.5 240.0,401.3 240.6,404.1 241.1,409.0 241.7,409.3 242.2,407.4 242.8,400.9 243.4,402.1 243.9,401.5 244.5,401.2 245.1,409.0 245.6,408.7 246.2,410.5 246.7,403.1 247.3,402.1 247.9,407.6 248.4,405.5 249.0,410.8 249.6,402.5 250.1,403.4 250.7,402.4 251.3,404.5 251.8,404.0 252.4,413.8 252.9,406.2 253.5,411.0 254.1,404.7 254.6,406.4 255.2,406.0 255.8,407.0 256.3,413.4 256.9,407.9 257.4,415.8 258.0,407.7 258.6,408.3 259.1,415.7 259.7,409.5 260.3,413.9 260.8,416.0 261.4,411.0 261.9,417.7 262.5,420.4 263.1,418.9 263.6,417.9 264.2,412.4 264.8,411.7 265.3,419.8 265.9,416.2 266.4,419.4 267.0,413.4 267.6,418.8 268.1,414.8 268.7,424.4 269.3,415.4 269.8,424.7 270.4,416.4 271.0,424.7 271.5,426.9 272.1,423.7 272.6,421.0 273.2,425.1 273.8,421.4 274.3,421.9 274.9,422.8 275.5,420.2 276.0,423.3 276.6,417.8 277.1,425.2 277.7,414.5 278.3,418.3 278.8,415.8 279.4,415.1 280.0,415.4 280.5,418.4 281.1,421.2 281.6,414.2 282.2,417.4 282.8,417.2 283.3,410.8 283.9,411.8 284.5,416.1 285.0,415.5 285.6,414.0 286.2,413.7 286.7,414.5 287.3,416.0 287.8,412.4 288.4,406.2 289.0,408.8 289.5,405.9 290.1,408.8 290.7,412.0 291.2,408.9 291.8,414.7 292.3,411.2 292.9,409.3 293.5,407.4 294.0,406.3 294.6,408.1 295.2,408.1 295.7,410.4 296.3,407.3 296.8,402.4 297.4,403.3 298.0,410.1 298.5,410.8 299.1,405.9 299.7,404.4 300.2,407.6 300.8,402.1 301.3,402.7 301.9,403.5 302.5,408.4 303.0,408.6 303.6,410.4 304.2,407.9 304.7,405.3 305.3,401.1 305.9,409.7 306.4,406.0 307.0,403.6 307.5,408.4 308.1,402.9 308.7,405.2 309.2,408.0 309.8,403.5 310.4,410.8 310.9,402.6 311.5,402.5 312.0,410.0 312.6,406.6 313.2,409.5 313.7,401.0 314.3,406.0 314.9,411.4 315.4,409.4 316.0,402.9 316.5,407.5 317.1,403.9 317.7,405.6 318.2,402.3 318.8,406.9 319.4,403.3 319.9,404.2 320.5,407.6 321.0,406.7 321.6,409.4 322.2,406.1 322.7,409.6 323.3,406.0 323.9,408.1 324.4,411.4 325.0,414.2 325.6,414.7 326.1,410.7 326.7,409.7 327.2,412.8 327.8,412.0 328.4,416.3 328.9,418.9 329.5,417.1 330.1,417.6 330.6,417.5 331.2,415.5 331.7,420.4 332.3,419.9 332.9,415.2 333.4,415.5 334.0,423.1 334.6,419.7 335.1,418.7 335.7,420.6 336.2,423.4 336.8,421.5 337.4,416.6 337.9,420.6 338.5,419.9 339.1,418.6 339.6,420.1 340.2,424.8 340.8,428.5 341.3,424.2 341.9,419.2 342.4,417.6 343.0,416.1 343.6,421.5 344.1,417.4 344.7,419.1 345.3,418.0 345.8,421.8 346.4,421.4 346.9,418.5 347.5,422.6 348.1,418.7 348.6,414.4 349.2,417.0 349.8,419.3 350.3,415.5 350.9,418.8 351.4,412.9 352.0,419.1 352.6,414.6 353.1,412.3 353.7,417.9 354.3,410.7 354.8,415.9 355.4,411.9 355.9,416.1 356.5,412.1 357.1,413.6 357.6,412.0 358.2,406.9 358.8,410.8 359.3,406.3 359.9,405.1 360.5,411.3 361.0,412.9 361.6,413.3 362.1,407.3 362.7,401.9 363.3,408.9 363.8,405.4 364.4,403.7 365.0,404.9 365.5,403.6 366.1,401.2 366.6,409.4 367.2,411.2 367.8,409.6 368.3,409.8 368.9,403.6 369.5,404.7 370.0,408.4 370.6,403.0 371.1,402.2 371.7,408.8 372.3,403.9 372.8,402.3 373.4,409.3 374.0,401.5 374.5,399.8 375.1,409.4 375.6,410.3 376.2,407.2 376.8,403.2 377.3,400.1 377.9,406.5 378.5,403.0 379.0,410.2 379.6,403.5 380.2,404.3 380.7,410.3 381.3,403.0 381.8,402.3 382.4,405.3 383.0,410.8 383.5,401.4 384.1,403.9 384.7,408.9 385.2,408.3 385.8,409.2 386.3,407.9 386.9,410.0 387.5,404.7 388.0,405.2 388.6,413.5 389.2,404.3 389.7,408.2 390.3,406.4 390.8,408.1 391.4,411.5 392.0,408.5 392.5,406.3 393.1,414.4 393.7,408.8 394.2,412.2 394.8,413.2 395.4,414.1 395.9,411.3 396.5,416.8 397.0,410.8 397.6,411.4 398.2,420.1 398.7,411.7 399.3,419.3 399.9,417.3 400.4,416.1 401.0,419.1 401.5,423.5 402.1,414.8 402.7,422.7 403.2,422.8 403.8,416.8 404.4,422.4 404.9,416.9 405.5,419.3 406.0,424.5 406.6,428.0 407.2,418.0 407.7,428.1 408.3,420.6 408.9,422.7 409.4,419.2 410.0,419.5 410.5,419.5 411.1,420.7 411.7,416.9 412.2,424.2 412.8,422.3 413.4,416.6 413.9,420.4 414.5,416.9 415.1,417.6 415.6,416.5 416.2,417.2 416.7,413.2 417.3,417.4 417.9,412.8 418.4,417.2 419.0,417.0 419.6,418.0 420.1,416.8 420.7,417.2 421.2,412.2 421.8,409.3 422.4,415.4 422.9,414.6 423.5,411.3 424.1,408.3 424.6,405.1 425.2,409.8 425.7,412.2 426.3,413.9 426.9,412.5 427.4,411.8 428.0,412.1 428.6,413.6 429.1,407.6 429.7,410.2 430.3,402.2 430.8,406.7 431.4,404.8 431.9,410.9 432.5,402.5 433.1,406.5 433.6,402.1 434.2,405.2 434.8,406.2 435.3,406.4 435.9,409.1 436.4,410.5 437.0,400.5 437.6,405.6 438.1,401.7 438.7,406.3 439.3,409.8 439.8,403.6 440.4,410.0 440.9,408.9 441.5,404.3 442.1,407.2 442.6,399.5 443.2,409.3 443.8,402.2 444.3,404.0 444.9,402.0 445.4,408.4 446.0,405.2 446.6,406.1 447.1,406.3 447.7,401.8 448.3,400.5 448.8,408.2 449.4,404.9 450.0,405.2 450.5,403.9 451.1,401.8 451.6,410.3 452.2,410.5 452.8,405.7 453.3,411.5 453.9,411.6 454.5,413.0 455.0,414.1 455.6,409.4 456.1,408.1 456.7,411.7 457.3,412.7 457.8,407.8 458.4,408.2 459.0,411.3 459.5,409.0 460.1,406.8 460.6,408.7 461.2,410.8 461.8,410.8 462.3,408.2 462.9,414.3 463.5,413.3 464.0,412.6 464.6,410.1 465.1,411.5 465.7,420.3 466.3,419.7 466.8,418.6 467.4,414.1 468.0,416.6 468.5,420.1 469.1,422.4 469.7,416.6 470.2,417.0 470.8,414.7 471.3,420.1 471.9,420.7 472.5,425.7 473.0,426.7 473.6,422.8 474.2,424.5 474.7,425.8 475.3,418.4 475.8,422.2 476.4,417.0 477.0,424.6 477.5,418.7 478.1,419.4 478.7,424.1 479.2,418.6 479.8,424.2 480.3,421.0 480.9,414.7 481.5,416.1 482.0,412.8 482.6,416.8 483.2,418.9 483.7,411.2 484.3,415.8 484.9,413.8 485.4,416.1 486.0,416.2 486.5,412.9 487.1,417.1 487.7,408.7 488.2,410.8 488.8,407.4 489.4,415.1 489.9,411.3 490.5,416.0 491.0,406.5 491.6,415.0 492.2,410.4 492.7,410.0 493.3,406.0 493.9,412.3 494.4,410.4 495.0,408.7 495.5,404.5 496.1,405.0 496.7,403.2 497.2,404.2 497.8,409.7 498.4,401.7 498.9,410.9 499.5,408.5 500.0,406.1 500.6,408.4 501.2,404.0 501.7,409.0 502.3,411.0 502.9,403.5 503.4,406.9 504.0,402.0 504.6,405.5 505.1,405.3 505.7,401.1 506.2,405.8 506.8,405.6 507.4,406.1 507.9,408.9 508.5,399.8 509.1,402.9 509.6,401.1 510.2,401.0 510.7,407.1 511.3,402.2 511.9,410.3 512.4,403.8 513.0,399.8 513.6,406.1 514.1,404.0 514.7,406.3 515.2,401.3 515.8,402.6 516.4,407.4 516.9,405.9 517.5,403.2 518.1,411.3 518.6,405.5 519.2,402.4 519.7,407.7 520.3,410.2 520.9,404.3 521.4,406.0 522.0,408.9 522.6,407.6 523.1,409.7 523.7,405.3 524.3,410.7 524.8,412.7 525.4,409.3 525.9,412.7 526.5,409.0 527.1,410.4 527.6,408.8 528.2,410.7 528.8,407.8 529.3,409.3 529.9,414.7 530.4,412.1 531.0,411.4 531.6,410.5 532.1,410.2 532.7,417.2 533.3,414.7 533.8,420.5 534.4,413.7 534.9,421.0 535.5,412.1 536.1,413.2 536.6,420.9 537.2,418.9 537.8,416.4 538.3,423.9 538.9,424.1 539.5,416.6 540.0,415.8 540.6,418.2 541.1,418.8 541.7,422.1 542.3,421.1 542.8,422.6 543.4,418.1 544.0,425.5 544.5,417.8 545.1,417.0 545.6,425.9 546.2,416.1 546.8,421.1 547.3,414.7 547.9,419.3 548.5,414.4 549.0,418.8 549.6,415.1 550.1,418.2 550.7,420.7 551.3,420.9 551.8,417.0 552.4,420.7 553.0,415.7 553.5,410.7 554.1,412.2 554.6,408.5 555.2,414.6 555.8,417.2 556.3,413.1 556.9,410.7 557.5,417.2 558.0,414.3 558.6,410.4 559.2,407.8 559.7,413.6 560.3,412.0 560.8,405.3 561.4,405.5 562.0,413.2 562.5,412.4 563.1,413.8 563.7,405.0 564.2,409.9 564.8,412.7 565.3,407.2 565.9,407.5 566.5,406.9 567.0,406.8 567.6,411.7 568.2,402.3 568.7,406.7 569.3,410.9 569.8,407.0 570.4,405.9 571.0,410.4 571.5,404.3 572.1,407.9 572.7,404.8 573.2,399.7 573.8,405.7 574.4,409.6 574.9,401.1 575.5,402.0 576.0,408.2 576.6,408.0 577.2,405.5 577.7,409.5 578.3,403.2 578.9,409.0 579.4,410.0 580.0,409.7 580.5,402.7 581.1,404.8 581.7,404.8 582.2,409.8 582.8,403.9 583.4,401.8 583.9,400.9 584.5,407.9 585.0,409.6 585.6,409.7 586.2,403.0 586.7,404.1 587.3,403.8 587.9,402.2 588.4,406.5 589.0,413.2 589.5,404.6 590.1,412.1 590.7,410.9 591.2,414.6 591.8,408.7 592.4,413.7 592.9,415.3 593.5,413.6 594.1,412.5 594.6,408.7 595.2,410.7 595.7,416.8 596.3,410.9 596.9,415.2 597.4,413.2 598.0,415.9 598.6,418.1 599.1,416.7 599.7,414.8 600.2,420.1 600.8,414.4 601.4,418.2 601.9,420.4 602.5,418.8 603.1,414.6 603.6,419.1 604.2,418.2 604.7,415.3 605.3,415.2 605.9,425.0 606.4,416.1 607.0,419.8 607.6,422.0 608.1,426.9 608.7,418.7 609.2,418.8 609.8,427.6 610.4,426.3 610.9,422.7 611.5,424.6 612.1,423.9 612.6,421.5 613.2,421.0 613.8,422.3 614.3,416.6 614.9,422.6 615.4,422.5 616.0,415.8 616.6,421.8 617.1,417.9 617.7,414.4 618.3,412.2 618.8,414.9 619.4,411.9 619.9,419.4 620.5,415.7 621.1,417.2 621.6,414.2 622.2,414.4 622.8,409.7 623.3,409.0 623.9,411.3 624.4,412.7 625.0,408.6 625.6,412.0 626.1,409.4 626.7,411.0 627.3,415.3 627.8,405.7 628.4,407.4 629.0,413.1 629.5,409.8 630.1,408.6 630.6,409.9 631.2,409.3 631.8,406.9 632.3,406.1 632.9,412.0 633.5,409.6 634.0,405.3 634.6,402.7 635.1,405.7 635.7,408.1 636.3,404.0 636.8,405.0 637.4,408.0 638.0,402.5 638.5,403.7 639.1,402.9 639.6,405.1 640.2,406.2 640.8,406.8 641.3,408.3 641.9,405.3 642.5,409.1 643.0,401.2 643.6,402.0 644.1,400.7 644.7,406.8 645.3,409.1 645.8,408.8 646.4,402.1 647.0,408.9 647.5,406.2 648.1,408.2 648.7,407.8 649.2,406.1 649.8,407.7 650.3,406.1 650.9,407.4 651.5,400.7 652.0,408.7 652.6,406.1 653.2,403.1 653.7,410.8 654.3,405.4 654.8,406.6 655.4,403.6 656.0,410.1 656.5,410.5 657.1,412.2 657.7,403.6 658.2,409.4 658.8,414.4 659.3,409.4 659.9,404.3 660.5,415.3 661.0,406.7 661.6,407.5 662.2,413.5 662.7,409.3 663.3,409.6 663.8,417.7 664.4,415.3 665.0,412.5 665.5,413.1 666.1,416.2 666.7,419.3 667.2,411.4 667.8,419.4 668.4,414.5 668.9,415.8 669.5,420.4 670.0,415.6 670.6,418.2 671.2,422.4 671.7,423.0 672.3,418.6 672.9,418.6 673.4,420.0 674.0,414.8 674.5,426.0 675.1,422.8 675.7,420.1 676.2,419.4 676.8,427.6 677.4,419.5 677.9,520.3 678.5,520.7 679.0,519.0 679.6,518.9 680.2,523.8 680.7,524.3 681.3,515.7 681.9,514.6 682.4,522.3 683.0,522.5 683.6,515.5 684.1,520.0 684.7,519.1 685.2,514.5 685.8,518.0 686.4,516.4 686.9,511.2 687.5,512.1 688.1,519.7 688.6,511.0 689.2,516.1 689.7,511.9 690.3,512.2 690.9,510.8 691.4,517.6 692.0,513.8 692.6,514.3 693.1,506.4 693.7,509.5 694.2,507.3 694.8,505.3 695.4,508.8 695.9,514.8 696.5,506.2 697.1,510.3 697.6,507.6 698.2,503.4 698.7,505.2 699.3,507.6 699.9,506.0 700.4,511.7 701.0,507.2 701.6,506.2 702.1,509.4 702.7,501.0 703.3,501.7 703.8,510.3 704.4,506.5 704.9,506.4 705.5,503.6 706.1,507.5 706.6,510.2 707.2,501.0 707.8,502.9 708.3,503.6 708.9,505.0 709.4,508.3 710.0,501.7 710.6,504.3 711.1,501.5 711.7,503.7 712.3,507.0 712.8,502.5 713.4,502.0 713.9,509.7 714.5,503.5 715.1,503.1 715.6,501.0 716.2,503.8 716.8,500.2 717.3,501.0 717.9,509.8 718.5,509.5 719.0,503.6 719.6,501.2 720.1,502.5 720.7,505.0 721.3,510.9 721.8,506.5 722.4,510.8 723.0,511.2 723.5,505.2 724.1,504.1 724.6,504.5 725.2,513.5 725.8,507.9 726.3,506.1 726.9,507.8 727.5,508.2 728.0,504.9 728.6,506.9 729.1,512.9 729.7,515.9 730.3,511.6 730.8,510.6 731.4,509.7 732.0,508.5 732.5,517.0 733.1,512.6 733.6,514.1 734.2,516.9 734.8,516.9 735.3,513.7 735.9,511.4 736.5,517.8 737.0,518.4 737.6,516.8 738.2,517.2 738.7,523.0 739.3,518.1 739.8,521.8 740.4,524.1 741.0,515.3 741.5,520.4 742.1,516.7 742.7,516.7 743.2,518.5 743.8,523.1 744.3,525.8 744.9,527.7 745.5,523.4 746.0,520.0 746.6,524.9 747.2,516.5 747.7,519.5 748.3,525.2 748.8,515.2 749.4,521.2 750.0,516.3 750.5,520.9 751.1,513.7 751.7,515.3 752.2,521.0 752.8,517.1 753.3,516.8 753.9,521.4 754.5,519.9 755.0,517.3 755.6,515.3 756.2,515.0 756.7,513.0 757.3,513.6 757.9,515.2 758.4,511.7 759.0,516.3 759.5,506.7 760.1,509.1 760.7,513.6 761.2,512.8 761.8,507.0 762.4,510.0 762.9,507.7 763.5,511.9 764.0,505.8 764.6,510.5 765.2,506.8 765.7,503.1 766.3,507.2 766.9,504.6 767.4,505.1 768.0,505.3 768.5,512.4 769.1,507.2 769.7,501.5 770.2,503.4 770.8,503.2 771.4,505.3 771.9,503.5 772.5,504.9 773.1,509.3 773.6,504.1 774.2,504.1 774.7,501.5 775.3,509.1 775.9,503.1 776.4,510.3 777.0,500.0 777.6,509.3 778.1,510.3 778.7,507.0 779.2,508.8 779.8,502.8 780.4,505.9 780.9,501.9 781.5,500.3 782.1,500.9 782.6,502.5 783.2,510.1 783.7,509.3 784.3,508.7 784.9,507.5 785.4,503.9 786.0,505.5 786.6,508.0 787.1,509.8 787.7,501.7 788.2,508.2 788.8,508.3 789.4,503.9 789.9,504.7 790.5,505.8 791.1,505.5 791.6,506.7 792.2,511.6 792.8,511.2 793.3,508.1 793.9,512.1 794.4,504.1 795.0,511.9 795.6,512.3 796.1,513.6 796.7,508.4 797.3,513.1 797.8,513.1 798.4,506.9 798.9,508.9 799.5,515.0 800.1,517.1 800.6,511.4 801.2,515.1 801.8,508.8 802.3,511.0 802.9,510.0 803.4,512.1 804.0,518.2 804.6,518.7 805.1,514.4 805.7,518.9 806.3,518.3 806.8,520.9 807.4,518.8 807.9,522.4 808.5,519.1 809.1,515.2 809.6,518.3 810.2,525.0 810.8,520.2 811.3,521.0 811.9,525.3 812.5,521.0 813.0,523.1 813.6,521.4 814.1,527.4 814.7,522.9 815.3,519.1 815.8,525.4 816.4,517.5 817.0,525.5 817.5,519.0 818.1,514.3 818.6,519.6 819.2,513.3 819.8,513.5 820.3,517.5 820.9,520.1 821.5,511.2 822.0,517.9 822.6,513.8 823.1,510.5 823.7,519.1 824.3,513.3 824.8,513.3 825.4,510.8 826.0,508.1 826.5,507.9 827.1,515.7 827.7,507.5 828.2,515.0 828.8,506.4 829.3,505.1 829.9,511.5 830.5,510.0 831.0,504.8 831.6,504.2 832.2,504.3 832.7,504.5 833.3,513.9 833.8,507.4 834.4,512.2 835.0,502.3 835.5,509.8 836.1,501.7 836.7,506.4 837.2,506.8 837.8,501.6 838.3,502.4 838.9,506.5 839.5,509.4 840.0,510.1 840.6,509.4 841.2,506.0 841.7,508.1 842.3,508.8 842.8,502.6 843.4,501.9 844.0,504.3 844.5,502.1 845.1,508.6 845.7,501.0 846.2,500.5 846.8,501.3 847.4,504.7 847.9,509.5 848.5,503.1 849.0,508.5 849.6,509.0 850.2,507.1 850.7,508.0 851.3,508.0 851.9,508.3 852.4,502.7 853.0,500.6 853.5,508.0 854.1,503.5 854.7,511.6 855.2,504.6 855.8,504.4 856.4,511.6 856.9,511.2 857.5,509.3 858.0,508.4 858.6,507.6 859.2,503.5 859.7,505.9 860.3,510.5 860.9,513.0 861.4,504.4 862.0,511.6 862.6,508.4 863.1,513.1 863.7,514.4 864.2,514.5 864.8,508.3 865.4,510.2 865.9,512.7 866.5,511.6 867.1,512.9 867.6,512.5 868.2,511.5 868.7,516.9 869.3,517.0 869.9,511.7 870.4,510.9 871.0,520.1 871.6,516.5 872.1,514.1 872.7,521.5 873.2,516.5 873.8,522.5 874.4,517.6 874.9,518.5 875.5,518.3 876.1,523.4 876.6,521.9 877.2,520.3 877.7,525.2 878.3,524.7 878.9,521.0 879.4,527.0 880.0,522.8 880.0,553.0" fill="#b91c1c" opacity="0.12"/>
<polyline points="70.0,422.0 70.6,428.3 71.1,425.0 71.7,425.1 72.3,418.9 72.8,419.1 73.4,416.3 73.9,424.7 74.5,420.5 75.1,424.4 75.6,421.8 76.2,418.2 76.8,423.0 77.3,420.7 77.9,415.2 78.4,415.9 79.0,419.1 79.6,414.5 80.1,411.7 80.7,420.2 81.3,410.9 81.8,411.6 82.4,415.2 82.9,416.8 83.5,407.5 84.1,414.1 84.6,416.4 85.2,416.0 85.8,407.3 86.3,409.6 86.9,407.0 87.4,407.5 88.0,409.4 88.6,404.2 89.1,410.5 89.7,408.2 90.3,404.9 90.8,406.9 91.4,404.0 92.0,406.9 92.5,405.2 93.1,412.3 93.6,410.0 94.2,409.1 94.8,411.3 95.3,409.4 95.9,410.7 96.5,408.5 97.0,404.4 97.6,407.3 98.1,407.1 98.7,408.7 99.3,408.0 99.8,400.5 100.4,403.6 101.0,403.9 101.5,408.8 102.1,402.5 102.6,408.8 103.2,406.3 103.8,399.6 104.3,403.5 104.9,404.4 105.5,403.0 106.0,401.3 106.6,402.1 107.2,408.2 107.7,410.5 108.3,407.5 108.8,408.1 109.4,408.8 110.0,400.8 110.5,401.7 111.1,408.1 111.7,404.5 112.2,407.6 112.8,402.0 113.3,407.3 113.9,409.6 114.5,410.1 115.0,406.8 115.6,410.4 116.2,407.0 116.7,403.8 117.3,409.7 117.8,411.9 118.4,403.6 119.0,409.3 119.5,414.3 120.1,415.1 120.7,414.8 121.2,409.4 121.8,407.9 122.3,412.3 122.9,416.7 123.5,413.6 124.0,407.1 124.6,412.7 125.2,408.2 125.7,409.8 126.3,419.7 126.9,412.2 127.4,413.1 128.0,415.1 128.5,418.6 129.1,414.9 129.7,421.2 130.2,418.0 130.8,418.3 131.4,413.2 131.9,414.5 132.5,421.8 133.0,419.6 133.6,423.7 134.2,416.0 134.7,417.0 135.3,423.8 135.9,420.5 136.4,421.3 137.0,426.9 137.5,420.6 138.1,422.6 138.7,419.4 139.2,421.7 139.8,427.1 140.4,423.0 140.9,425.9 141.5,415.4 142.1,415.4 142.6,415.5 143.2,420.8 143.7,423.2 144.3,413.6 144.9,412.4 145.4,421.5 146.0,416.6 146.6,420.8 147.1,412.6 147.7,412.2 148.2,418.8 148.8,414.5 149.4,413.3 149.9,416.0 150.5,408.9 151.1,413.5 151.6,415.4 152.2,411.4 152.7,408.9 153.3,414.4 153.9,412.9 154.4,404.9 155.0,408.4 155.6,410.4 156.1,409.2 156.7,413.3 157.2,411.9 157.8,410.3 158.4,407.3 158.9,411.0 159.5,410.8 160.1,412.2 160.6,405.8 161.2,410.0 161.8,402.3 162.3,402.6 162.9,411.2 163.4,409.1 164.0,404.2 164.6,409.1 165.1,409.8 165.7,400.8 166.3,404.7 166.8,405.7 167.4,402.2 167.9,401.8 168.5,408.6 169.1,409.6 169.6,405.8 170.2,405.9 170.8,405.4 171.3,402.5 171.9,403.1 172.4,399.6 173.0,409.5 173.6,406.2 174.1,406.9 174.7,401.2 175.3,408.1 175.8,408.8 176.4,406.1 176.9,406.5 177.5,408.2 178.1,408.7 178.6,401.4 179.2,406.9 179.8,402.4 180.3,406.0 180.9,411.8 181.5,401.5 182.0,403.5 182.6,402.3 183.1,403.0 183.7,404.1 184.3,412.0 184.8,408.7 185.4,412.0 186.0,410.2 186.5,414.3 187.1,411.1 187.6,404.7 188.2,413.0 188.8,407.6 189.3,411.6 189.9,412.3 190.5,406.8 191.0,406.7 191.6,412.0 192.1,410.6 192.7,417.3 193.3,416.1 193.8,409.0 194.4,413.8 195.0,414.6 195.5,412.8 196.1,420.9 196.7,415.5 197.2,416.8 197.8,413.4 198.3,421.6 198.9,413.1 199.5,423.4 200.0,422.7 200.6,418.6 201.2,418.2 201.7,423.5 202.3,425.3 202.8,417.2 203.4,424.9 204.0,421.5 204.5,421.7 205.1,424.4 205.7,422.1 206.2,422.3 206.8,417.2 207.3,424.9 207.9,418.7 208.5,423.5 209.0,421.3 209.6,417.7 210.2,421.4 210.7,420.8 211.3,415.4 211.8,422.5 212.4,417.8 213.0,411.3 213.5,410.9 214.1,420.7 214.7,418.7 215.2,417.7 215.8,409.9 216.4,410.0 216.9,409.6 217.5,414.9 218.0,416.8 218.6,408.9 219.2,410.0 219.7,410.6 220.3,406.1 220.9,409.4 221.4,416.2 222.0,406.9 222.5,412.3 223.1,407.9 223.7,404.6 224.2,413.2 224.8,413.1 225.4,412.9 225.9,407.7 226.5,410.5 227.0,406.6 227.6,405.1 228.2,410.5 228.7,405.5 229.3,409.4 229.9,406.7 230.4,401.9 231.0,402.4 231.5,410.6 232.1,406.8 232.7,408.2 233.2,411.1 233.8,402.5 234.4,403.9 234.9,408.0 235.5,402.6 236.1,404.6 236.6,405.9 237.2,410.5 237.7,409.7 238.3,400.8 238.9,400.5 239.4,404.5 240.0,401.3 240.6,404.1 241.1,409.0 241.7,409.3 242.2,407.4 242.8,400.9 243.4,402.1 243.9,401.5 244.5,401.2 245.1,409.0 245.6,408.7 246.2,410.5 246.7,403.1 247.3,402.1 247.9,407.6 248.4,405.5 249.0,410.8 249.6,402.5 250.1,403.4 250.7,402.4 251.3,404.5 251.8,404.0 252.4,413.8 252.9,406.2 253.5,411.0 254.1,404.7 254.6,406.4 255.2,406.0 255.8,407.0 256.3,413.4 256.9,407.9 257.4,415.8 258.0,407.7 258.6,408.3 259.1,415.7 259.7,409.5 260.3,413.9 260.8,416.0 261.4,411.0 261.9,417.7 262.5,420.4 263.1,418.9 263.6,417.9 264.2,412.4 264.8,411.7 265.3,419.8 265.9,416.2 266.4,419.4 267.0,413.4 267.6,418.8 268.1,414.8 268.7,424.4 269.3,415.4 269.8,424.7 270.4,416.4 271.0,424.7 271.5,426.9 272.1,423.7 272.6,421.0 273.2,425.1 273.8,421.4 274.3,421.9 274.9,422.8 275.5,420.2 276.0,423.3 276.6,417.8 277.1,425.2 277.7,414.5 278.3,418.3 278.8,415.8 279.4,415.1 280.0,415.4 280.5,418.4 281.1,421.2 281.6,414.2 282.2,417.4 282.8,417.2 283.3,410.8 283.9,411.8 284.5,416.1 285.0,415.5 285.6,414.0 286.2,413.7 286.7,414.5 287.3,416.0 287.8,412.4 288.4,406.2 289.0,408.8 289.5,405.9 290.1,408.8 290.7,412.0 291.2,408.9 291.8,414.7 292.3,411.2 292.9,409.3 293.5,407.4 294.0,406.3 294.6,408.1 295.2,408.1 295.7,410.4 296.3,407.3 296.8,402.4 297.4,403.3 298.0,410.1 298.5,410.8 299.1,405.9 299.7,404.4 300.2,407.6 300.8,402.1 301.3,402.7 301.9,403.5 302.5,408.4 303.0,408.6 303.6,410.4 304.2,407.9 304.7,405.3 305.3,401.1 305.9,409.7 306.4,406.0 307.0,403.6 307.5,408.4 308.1,402.9 308.7,405.2 309.2,408.0 309.8,403.5 310.4,410.8 310.9,402.6 311.5,402.5 312.0,410.0 312.6,406.6 313.2,409.5 313.7,401.0 314.3,406.0 314.9,411.4 315.4,409.4 316.0,402.9 316.5,407.5 317.1,403.9 317.7,405.6 318.2,402.3 318.8,406.9 319.4,403.3 319.9,404.2 320.5,407.6 321.0,406.7 321.6,409.4 322.2,406.1 322.7,409.6 323.3,406.0 323.9,408.1 324.4,411.4 325.0,414.2 325.6,414.7 326.1,410.7 326.7,409.7 327.2,412.8 327.8,412.0 328.4,416.3 328.9,418.9 329.5,417.1 330.1,417.6 330.6,417.5 331.2,415.5 331.7,420.4 332.3,419.9 332.9,415.2 333.4,415.5 334.0,423.1 334.6,419.7 335.1,418.7 335.7,420.6 336.2,423.4 336.8,421.5 337.4,416.6 337.9,420.6 338.5,419.9 339.1,418.6 339.6,420.1 340.2,424.8 340.8,428.5 341.3,424.2 341.9,419.2 342.4,417.6 343.0,416.1 343.6,421.5 344.1,417.4 344.7,419.1 345.3,418.0 345.8,421.8 346.4,421.4 346.9,418.5 347.5,422.6 348.1,418.7 348.6,414.4 349.2,417.0 349.8,419.3 350.3,415.5 350.9,418.8 351.4,412.9 352.0,419.1 352.6,414.6 353.1,412.3 353.7,417.9 354.3,410.7 354.8,415.9 355.4,411.9 355.9,416.1 356.5,412.1 357.1,413.6 357.6,412.0 358.2,406.9 358.8,410.8 359.3,406.3 359.9,405.1 360.5,411.3 361.0,412.9 361.6,413.3 362.1,407.3 362.7,401.9 363.3,408.9 363.8,405.4 364.4,403.7 365.0,404.9 365.5,403.6 366.1,401.2 366.6,409.4 367.2,411.2 367.8,409.6 368.3,409.8 368.9,403.6 369.5,404.7 370.0,408.4 370.6,403.0 371.1,402.2 371.7,408.8 372.3,403.9 372.8,402.3 373.4,409.3 374.0,401.5 374.5,399.8 375.1,409.4 375.6,410.3 376.2,407.2 376.8,403.2 377.3,400.1 377.9,406.5 378.5,403.0 379.0,410.2 379.6,403.5 380.2,404.3 380.7,410.3 381.3,403.0 381.8,402.3 382.4,405.3 383.0,410.8 383.5,401.4 384.1,403.9 384.7,408.9 385.2,408.3 385.8,409.2 386.3,407.9 386.9,410.0 387.5,404.7 388.0,405.2 388.6,413.5 389.2,404.3 389.7,408.2 390.3,406.4 390.8,408.1 391.4,411.5 392.0,408.5 392.5,406.3 393.1,414.4 393.7,408.8 394.2,412.2 394.8,413.2 395.4,414.1 395.9,411.3 396.5,416.8 397.0,410.8 397.6,411.4 398.2,420.1 398.7,411.7 399.3,419.3 399.9,417.3 400.4,416.1 401.0,419.1 401.5,423.5 402.1,414.8 402.7,422.7 403.2,422.8 403.8,416.8 404.4,422.4 404.9,416.9 405.5,419.3 406.0,424.5 406.6,428.0 407.2,418.0 407.7,428.1 408.3,420.6 408.9,422.7 409.4,419.2 410.0,419.5 410.5,419.5 411.1,420.7 411.7,416.9 412.2,424.2 412.8,422.3 413.4,416.6 413.9,420.4 414.5,416.9 415.1,417.6 415.6,416.5 416.2,417.2 416.7,413.2 417.3,417.4 417.9,412.8 418.4,417.2 419.0,417.0 419.6,418.0 420.1,416.8 420.7,417.2 421.2,412.2 421.8,409.3 422.4,415.4 422.9,414.6 423.5,411.3 424.1,408.3 424.6,405.1 425.2,409.8 425.7,412.2 426.3,413.9 426.9,412.5 427.4,411.8 428.0,412.1 428.6,413.6 429.1,407.6 429.7,410.2 430.3,402.2 430.8,406.7 431.4,404.8 431.9,410.9 432.5,402.5 433.1,406.5 433.6,402.1 434.2,405.2 434.8,406.2 435.3,406.4 435.9,409.1 436.4,410.5 437.0,400.5 437.6,405.6 438.1,401.7 438.7,406.3 439.3,409.8 439.8,403.6 440.4,410.0 440.9,408.9 441.5,404.3 442.1,407.2 442.6,399.5 443.2,409.3 443.8,402.2 444.3,404.0 444.9,402.0 445.4,408.4 446.0,405.2 446.6,406.1 447.1,406.3 447.7,401.8 448.3,400.5 448.8,408.2 449.4,404.9 450.0,405.2 450.5,403.9 451.1,401.8 451.6,410.3 452.2,410.5 452.8,405.7 453.3,411.5 453.9,411.6 454.5,413.0 455.0,414.1 455.6,409.4 456.1,408.1 456.7,411.7 457.3,412.7 457.8,407.8 458.4,408.2 459.0,411.3 459.5,409.0 460.1,406.8 460.6,408.7 461.2,410.8 461.8,410.8 462.3,408.2 462.9,414.3 463.5,413.3 464.0,412.6 464.6,410.1 465.1,411.5 465.7,420.3 466.3,419.7 466.8,418.6 467.4,414.1 468.0,416.6 468.5,420.1 469.1,422.4 469.7,416.6 470.2,417.0 470.8,414.7 471.3,420.1 471.9,420.7 472.5,425.7 473.0,426.7 473.6,422.8 474.2,424.5 474.7,425.8 475.3,418.4 475.8,422.2 476.4,417.0 477.0,424.6 477.5,418.7 478.1,419.4 478.7,424.1 479.2,418.6 479.8,424.2 480.3,421.0 480.9,414.7 481.5,416.1 482.0,412.8 482.6,416.8 483.2,418.9 483.7,411.2 484.3,415.8 484.9,413.8 485.4,416.1 486.0,416.2 486.5,412.9 487.1,417.1 487.7,408.7 488.2,410.8 488.8,407.4 489.4,415.1 489.9,411.3 490.5,416.0 491.0,406.5 491.6,415.0 492.2,410.4 492.7,410.0 493.3,406.0 493.9,412.3 494.4,410.4 495.0,408.7 495.5,404.5 496.1,405.0 496.7,403.2 497.2,404.2 497.8,409.7 498.4,401.7 498.9,410.9 499.5,408.5 500.0,406.1 500.6,408.4 501.2,404.0 501.7,409.0 502.3,411.0 502.9,403.5 503.4,406.9 504.0,402.0 504.6,405.5 505.1,405.3 505.7,401.1 506.2,405.8 506.8,405.6 507.4,406.1 507.9,408.9 508.5,399.8 509.1,402.9 509.6,401.1 510.2,401.0 510.7,407.1 511.3,402.2 511.9,410.3 512.4,403.8 513.0,399.8 513.6,406.1 514.1,404.0 514.7,406.3 515.2,401.3 515.8,402.6 516.4,407.4 516.9,405.9 517.5,403.2 518.1,411.3 518.6,405.5 519.2,402.4 519.7,407.7 520.3,410.2 520.9,404.3 521.4,406.0 522.0,408.9 522.6,407.6 523.1,409.7 523.7,405.3 524.3,410.7 524.8,412.7 525.4,409.3 525.9,412.7 526.5,409.0 527.1,410.4 527.6,408.8 528.2,410.7 528.8,407.8 529.3,409.3 529.9,414.7 530.4,412.1 531.0,411.4 531.6,410.5 532.1,410.2 532.7,417.2 533.3,414.7 533.8,420.5 534.4,413.7 534.9,421.0 535.5,412.1 536.1,413.2 536.6,420.9 537.2,418.9 537.8,416.4 538.3,423.9 538.9,424.1 539.5,416.6 540.0,415.8 540.6,418.2 541.1,418.8 541.7,422.1 542.3,421.1 542.8,422.6 543.4,418.1 544.0,425.5 544.5,417.8 545.1,417.0 545.6,425.9 546.2,416.1 546.8,421.1 547.3,414.7 547.9,419.3 548.5,414.4 549.0,418.8 549.6,415.1 550.1,418.2 550.7,420.7 551.3,420.9 551.8,417.0 552.4,420.7 553.0,415.7 553.5,410.7 554.1,412.2 554.6,408.5 555.2,414.6 555.8,417.2 556.3,413.1 556.9,410.7 557.5,417.2 558.0,414.3 558.6,410.4 559.2,407.8 559.7,413.6 560.3,412.0 560.8,405.3 561.4,405.5 562.0,413.2 562.5,412.4 563.1,413.8 563.7,405.0 564.2,409.9 564.8,412.7 565.3,407.2 565.9,407.5 566.5,406.9 567.0,406.8 567.6,411.7 568.2,402.3 568.7,406.7 569.3,410.9 569.8,407.0 570.4,405.9 571.0,410.4 571.5,404.3 572.1,407.9 572.7,404.8 573.2,399.7 573.8,405.7 574.4,409.6 574.9,401.1 575.5,402.0 576.0,408.2 576.6,408.0 577.2,405.5 577.7,409.5 578.3,403.2 578.9,409.0 579.4,410.0 580.0,409.7 580.5,402.7 581.1,404.8 581.7,404.8 582.2,409.8 582.8,403.9 583.4,401.8 583.9,400.9 584.5,407.9 585.0,409.6 585.6,409.7 586.2,403.0 586.7,404.1 587.3,403.8 587.9,402.2 588.4,406.5 589.0,413.2 589.5,404.6 590.1,412.1 590.7,410.9 591.2,414.6 591.8,408.7 592.4,413.7 592.9,415.3 593.5,413.6 594.1,412.5 594.6,408.7 595.2,410.7 595.7,416.8 596.3,410.9 596.9,415.2 597.4,413.2 598.0,415.9 598.6,418.1 599.1,416.7 599.7,414.8 600.2,420.1 600.8,414.4 601.4,418.2 601.9,420.4 602.5,418.8 603.1,414.6 603.6,419.1 604.2,418.2 604.7,415.3 605.3,415.2 605.9,425.0 606.4,416.1 607.0,419.8 607.6,422.0 608.1,426.9 608.7,418.7 609.2,418.8 609.8,427.6 610.4,426.3 610.9,422.7 611.5,424.6 612.1,423.9 612.6,421.5 613.2,421.0 613.8,422.3 614.3,416.6 614.9,422.6 615.4,422.5 616.0,415.8 616.6,421.8 617.1,417.9 617.7,414.4 618.3,412.2 618.8,414.9 619.4,411.9 619.9,419.4 620.5,415.7 621.1,417.2 621.6,414.2 622.2,414.4 622.8,409.7 623.3,409.0 623.9,411.3 624.4,412.7 625.0,408.6 625.6,412.0 626.1,409.4 626.7,411.0 627.3,415.3 627.8,405.7 628.4,407.4 629.0,413.1 629.5,409.8 630.1,408.6 630.6,409.9 631.2,409.3 631.8,406.9 632.3,406.1 632.9,412.0 633.5,409.6 634.0,405.3 634.6,402.7 635.1,405.7 635.7,408.1 636.3,404.0 636.8,405.0 637.4,408.0 638.0,402.5 638.5,403.7 639.1,402.9 639.6,405.1 640.2,406.2 640.8,406.8 641.3,408.3 641.9,405.3 642.5,409.1 643.0,401.2 643.6,402.0 644.1,400.7 644.7,406.8 645.3,409.1 645.8,408.8 646.4,402.1 647.0,408.9 647.5,406.2 648.1,408.2 648.7,407.8 649.2,406.1 649.8,407.7 650.3,406.1 650.9,407.4 651.5,400.7 652.0,408.7 652.6,406.1 653.2,403.1 653.7,410.8 654.3,405.4 654.8,406.6 655.4,403.6 656.0,410.1 656.5,410.5 657.1,412.2 657.7,403.6 658.2,409.4 658.8,414.4 659.3,409.4 659.9,404.3 660.5,415.3 661.0,406.7 661.6,407.5 662.2,413.5 662.7,409.3 663.3,409.6 663.8,417.7 664.4,415.3 665.0,412.5 665.5,413.1 666.1,416.2 666.7,419.3 667.2,411.4 667.8,419.4 668.4,414.5 668.9,415.8 669.5,420.4 670.0,415.6 670.6,418.2 671.2,422.4 671.7,423.0 672.3,418.6 672.9,418.6 673.4,420.0 674.0,414.8 674.5,426.0 675.1,422.8 675.7,420.1 676.2,419.4 676.8,427.6 677.4,419.5 677.9,520.3 678.5,520.7 679.0,519.0 679.6,518.9 680.2,523.8 680.7,524.3 681.3,515.7 681.9,514.6 682.4,522.3 683.0,522.5 683.6,515.5 684.1,520.0 684.7,519.1 685.2,514.5 685.8,518.0 686.4,516.4 686.9,511.2 687.5,512.1 688.1,519.7 688.6,511.0 689.2,516.1 689.7,511.9 690.3,512.2 690.9,510.8 691.4,517.6 692.0,513.8 692.6,514.3 693.1,506.4 693.7,509.5 694.2,507.3 694.8,505.3 695.4,508.8 695.9,514.8 696.5,506.2 697.1,510.3 697.6,507.6 698.2,503.4 698.7,505.2 699.3,507.6 699.9,506.0 700.4,511.7 701.0,507.2 701.6,506.2 702.1,509.4 702.7,501.0 703.3,501.7 703.8,510.3 704.4,506.5 704.9,506.4 705.5,503.6 706.1,507.5 706.6,510.2 707.2,501.0 707.8,502.9 708.3,503.6 708.9,505.0 709.4,508.3 710.0,501.7 710.6,504.3 711.1,501.5 711.7,503.7 712.3,507.0 712.8,502.5 713.4,502.0 713.9,509.7 714.5,503.5 715.1,503.1 715.6,501.0 716.2,503.8 716.8,500.2 717.3,501.0 717.9,509.8 718.5,509.5 719.0,503.6 719.6,501.2 720.1,502.5 720.7,505.0 721.3,510.9 721.8,506.5 722.4,510.8 723.0,511.2 723.5,505.2 724.1,504.1 724.6,504.5 725.2,513.5 725.8,507.9 726.3,506.1 726.9,507.8 727.5,508.2 728.0,504.9 728.6,506.9 729.1,512.9 729.7,515.9 730.3,511.6 730.8,510.6 731.4,509.7 732.0,508.5 732.5,517.0 733.1,512.6 733.6,514.1 734.2,516.9 734.8,516.9 735.3,513.7 735.9,511.4 736.5,517.8 737.0,518.4 737.6,516.8 738.2,517.2 738.7,523.0 739.3,518.1 739.8,521.8 740.4,524.1 741.0,515.3 741.5,520.4 742.1,516.7 742.7,516.7 743.2,518.5 743.8,523.1 744.3,525.8 744.9,527.7 745.5,523.4 746.0,520.0 746.6,524.9 747.2,516.5 747.7,519.5 748.3,525.2 748.8,515.2 749.4,521.2 750.0,516.3 750.5,520.9 751.1,513.7 751.7,515.3 752.2,521.0 752.8,517.1 753.3,516.8 753.9,521.4 754.5,519.9 755.0,517.3 755.6,515.3 756.2,515.0 756.7,513.0 757.3,513.6 757.9,515.2 758.4,511.7 759.0,516.3 759.5,506.7 760.1,509.1 760.7,513.6 761.2,512.8 761.8,507.0 762.4,510.0 762.9,507.7 763.5,511.9 764.0,505.8 764.6,510.5 765.2,506.8 765.7,503.1 766.3,507.2 766.9,504.6 767.4,505.1 768.0,505.3 768.5,512.4 769.1,507.2 769.7,501.5 770.2,503.4 770.8,503.2 771.4,505.3 771.9,503.5 772.5,504.9 773.1,509.3 773.6,504.1 774.2,504.1 774.7,501.5 775.3,509.1 775.9,503.1 776.4,510.3 777.0,500.0 777.6,509.3 778.1,510.3 778.7,507.0 779.2,508.8 779.8,502.8 780.4,505.9 780.9,501.9 781.5,500.3 782.1,500.9 782.6,502.5 783.2,510.1 783.7,509.3 784.3,508.7 784.9,507.5 785.4,503.9 786.0,505.5 786.6,508.0 787.1,509.8 787.7,501.7 788.2,508.2 788.8,508.3 789.4,503.9 789.9,504.7 790.5,505.8 791.1,505.5 791.6,506.7 792.2,511.6 792.8,511.2 793.3,508.1 793.9,512.1 794.4,504.1 795.0,511.9 795.6,512.3 796.1,513.6 796.7,508.4 797.3,513.1 797.8,513.1 798.4,506.9 798.9,508.9 799.5,515.0 800.1,517.1 800.6,511.4 801.2,515.1 801.8,508.8 802.3,511.0 802.9,510.0 803.4,512.1 804.0,518.2 804.6,518.7 805.1,514.4 805.7,518.9 806.3,518.3 806.8,520.9 807.4,518.8 807.9,522.4 808.5,519.1 809.1,515.2 809.6,518.3 810.2,525.0 810.8,520.2 811.3,521.0 811.9,525.3 812.5,521.0 813.0,523.1 813.6,521.4 814.1,527.4 814.7,522.9 815.3,519.1 815.8,525.4 816.4,517.5 817.0,525.5 817.5,519.0 818.1,514.3 818.6,519.6 819.2,513.3 819.8,513.5 820.3,517.5 820.9,520.1 821.5,511.2 822.0,517.9 822.6,513.8 823.1,510.5 823.7,519.1 824.3,513.3 824.8,513.3 825.4,510.8 826.0,508.1 826.5,507.9 827.1,515.7 827.7,507.5 828.2,515.0 828.8,506.4 829.3,505.1 829.9,511.5 830.5,510.0 831.0,504.8 831.6,504.2 832.2,504.3 832.7,504.5 833.3,513.9 833.8,507.4 834.4,512.2 835.0,502.3 835.5,509.8 836.1,501.7 836.7,506.4 837.2,506.8 837.8,501.6 838.3,502.4 838.9,506.5 839.5,509.4 840.0,510.1 840.6,509.4 841.2,506.0 841.7,508.1 842.3,508.8 842.8,502.6 843.4,501.9 844.0,504.3 844.5,502.1 845.1,508.6 845.7,501.0 846.2,500.5 846.8,501.3 847.4,504.7 847.9,509.5 848.5,503.1 849.0,508.5 849.6,509.0 850.2,507.1 850.7,508.0 851.3,508.0 851.9,508.3 852.4,502.7 853.0,500.6 853.5,508.0 854.1,503.5 854.7,511.6 855.2,504.6 855.8,504.4 856.4,511.6 856.9,511.2 857.5,509.3 858.0,508.4 858.6,507.6 859.2,503.5 859.7,505.9 860.3,510.5 860.9,513.0 861.4,504.4 862.0,511.6 862.6,508.4 863.1,513.1 863.7,514.4 864.2,514.5 864.8,508.3 865.4,510.2 865.9,512.7 866.5,511.6 867.1,512.9 867.6,512.5 868.2,511.5 868.7,516.9 869.3,517.0 869.9,511.7 870.4,510.9 871.0,520.1 871.6,516.5 872.1,514.1 872.7,521.5 873.2,516.5 873.8,522.5 874.4,517.6 874.9,518.5 875.5,518.3 876.1,523.4 876.6,521.9 877.2,520.3 877.7,525.2 878.3,524.7 878.9,521.0 879.4,527.0 880.0,522.8" fill="none" stroke="#b91c1c" stroke-width="1.5"/>
<text x="475.0" y="356" text-anchor="middle" font-size="13" font-weight="bold" fill="#333">CPU (%)</text>
</svg>