<svg xmlns="http://www.w3.org/2000/svg" width="900" height="608" font-family="monospace">
<rect width="900" height="608" fill="white"/>
<text x="450.0" y="24" text-anchor="middle" font-size="16" font-weight="bold" fill="#222">Single Process (Memory Ramp)</text>
<text x="450.0" y="42" text-anchor="middle" font-size="11" fill="#666" font-style="italic">Allocates 10 MiB/s for 10s, then frees everything</text>
<text x="450.0" y="60" text-anchor="middle" font-size="11" fill="#888">samples=12  peak_rss=108.7 MiB  avg_rss=54.8 MiB  peak_cpu=2.0%  avg_cpu=0.9%</text>
<rect x="70" y="98" width="810" height="185" fill="#fafafa" stroke="#ddd"/>
<line x1="70" y1="283.0" x2="880" y2="283.0" stroke="#eee" stroke-width="0.5"/>
<text x="62" y="287.0" text-anchor="end" font-size="11" fill="#666">0</text>
<line x1="70" y1="252.2" x2="880" y2="252.2" stroke="#eee" stroke-width="0.5"/>
<text x="62" y="256.2" text-anchor="end" font-size="11" fill="#666">20</text>
<line x1="70" y1="221.3" x2="880" y2="221.3" stroke="#eee" stroke-width="0.5"/>
<text x="62" y="225.3" text-anchor="end" font-size="11" fill="#666">40</text>
<line x1="70" y1="190.5" x2="880" y2="190.5" stroke="#eee" stroke-width="0.5"/>
<text x="62" y="194.5" text-anchor="end" font-size="11" fill="#666">60</text>
<line x1="70" y1="159.7" x2="880" y2="159.7" stroke="#eee" stroke-width="0.5"/>
<text x="62" y="163.7" text-anchor="end" font-size="11" fill="#666">80</text>
<line x1="70" y1="128.8" x2="880" y2="128.8" stroke="#eee" stroke-width="0.5"/>
<text x="62" y="132.8" text-anchor="end" font-size="11" fill="#666">100</text>
<line x1="70" y1="98.0" x2="880" y2="98.0" stroke="#eee" stroke-width="0.5"/>
<text x="62" y="102.0" text-anchor="end" font-size="11" fill="#666">120</text>
<text x="70.0" y="303" text-anchor="middle" font-size="11" fill="#666">0s</text>
<text x="217.0" y="303" text-anchor="middle" font-size="11" fill="#666">2s</text>
<text x="364.1" y="303" text-anchor="middle" font-size="11" fill="#666">4s</text>
<text x="511.1" y="303" text-anchor="middle" font-size="11" fill="#666">6s</text>
<text x="658.2" y="303" text-anchor="middle" font-size="11" fill="#666">8s</text>
<text x="805.2" y="303" text-anchor="middle" font-size="11" fill="#666">10s</text>
<text x="880.0" y="303" text-anchor="middle" font-size="11" fill="#666">11s</text>
<polygon points="70.0,283.0 70.0,250.2 143.7,238.6 217.3,223.2 290.9,208.0 364.5,192.6 438.2,177.0 511.8,161.5 585.5,146.0 659.1,130.9 732.7,115.4 806.3,269.4 880.0,269.4 880.0,283.0" fill="#1d4ed8" opacity="0.12"/>
<polyline points="70.0,250.2 143.7,238.6 217.3,223.2 290.9,208.0 364.5,192.6 438.2,177.0 511.8,161.5 585.5,146.0 659.1,130.9 732.7,115.4 806.3,269.4 880.0,269.4" fill="none" stroke="#1d4ed8" stroke-width="1.5"/>
<text x="475.0" y="86" text-anchor="middle" font-size="13" font-weight="bold" fill="#333">RSS (MiB)</text>
<rect x="70" y="368" width="810" height="185" fill="#fafafa" stroke="#ddd"/>
<line x1="70" y1="553.0" x2="880" y2="553.0" stroke="#eee" stroke-width="0.5"/>
<text x="62" y="557.0" text-anchor="end" font-size="11" fill="#666">0.00</text>
<line x1="70" y1="506.8" x2="880" y2="506.8" stroke="#eee" stroke-width="0.5"/>
<text x="62" y="510.8" text-anchor="end" font-size="11" fill="#666">0.50</text>
<line x1="70" y1="460.5" x2="880" y2="460.5" stroke="#eee" stroke-width="0.5"/>
<text x="62" y="464.5" text-anchor="end" font-size="11" fill="#666">1.00</text>
<line x1="70" y1="414.2" x2="880" y2="414.2" stroke="#eee" stroke-width="0.5"/>
<text x="62" y="418.2" text-anchor="end" font-size="11" fill="#666">1.50</text>
<line x1="70" y1="368.0" x2="880" y2="368.0" stroke="#eee" stroke-width="0.5"/>
<text x="62" y="372.0" text-anchor="end" font-size="11" fill="#666">2.00</text>
<text x="70.0" y="573" text-anchor="middle" font-size="11" fill="#666">0s</text>
<text x="217.0" y="573" text-anchor="middle" font-size="11" fill="#666">2s</text>
<text x="364.1" y="573" text-anchor="middle" font-size="11" fill="#666">4s</text>
<text x="511.1" y="573" text-anchor="middle" font-size="11" fill="#666">6s</text>
<text x="658.2" y="573" text-anchor="middle" font-size="11" fill="#666">8s</text>
<text x="805.2" y="573" text-anchor="middle" font-size="11" fill="#666">10s</text>
<text x="880.0" y="573" text-anchor="middle" font-size="11" fill="#666">11s</text>
<polygon points="70.0,553.0 70.0,460.5 143.7,553.0 217.3,460.5 290.9,460.5 364.5,368.0 438.2,460.5 511.8,553.0 585.5,368.0 659.1,460.5 732.7,460.5 806.3,460.5 880.0,553.0 880.0,553.0" fill="#b91c1c" opacity="0.12"/>
<polyline points="70.0,460.5 143.7,553.0 217.3,460.5 290.9,460.5 364.5,368.0 438.2,460.5 511.8,553.0 585.5,368.0 659.1,460.5 732.7,460.5 806.3,460.5 880.0,553.0" fill="none" stroke="#b91c1c" stroke-width="1.5"/>
<text x="475.0" y="356" text-anchor="middle" font-size="13" font-weight="bold" fill="#333">CPU (%)</text>
</svg>