<svg xmlns="http://www.w3.org/2000/svg" width="900" height="608" font-family="monospace">
<rect width="900" height="608" fill="white"/>
<text x="450.0" y="24" text-anchor="middle" font-size="16" font-weight="bold" fill="#222">Thread-Level Mode</text>
<text x="450.0" y="42" text-anchor="middle" font-size="11" fill="#666" font-style="italic">4 threads, each 20 MiB + CPU burn (GIL limits parallelism)</text>
<text x="450.0" y="60" text-anchor="middle" font-size="11" fill="#888">samples=18  peak_rss=88.2 MiB  avg_rss=88.2 MiB  peak_cpu=36.0%  avg_cpu=31.5%</text>
<rect x="70" y="98" width="810" height="185" fill="#fafafa" stroke="#ddd"/>
<line x1="70" y1="283.0" x2="880" y2="283.0" stroke="#eee" stroke-width="0.5"/>
<text x="62" y="287.0" text-anchor="end" font-size="11" fill="#666">0</text>
<line x1="70" y1="246.0" x2="880" y2="246.0" stroke="#eee" stroke-width="0.5"/>
<text x="62" y="250.0" text-anchor="end" font-size="11" fill="#666">20</text>
<line x1="70" y1="209.0" x2="880" y2="209.0" stroke="#eee" stroke-width="0.5"/>
<text x="62" y="213.0" text-anchor="end" font-size="11" fill="#666">40</text>
<line x1="70" y1="172.0" x2="880" y2="172.0" stroke="#eee" stroke-width="0.5"/>
<text x="62" y="176.0" text-anchor="end" font-size="11" fill="#666">60</text>
<line x1="70" y1="135.0" x2="880" y2="135.0" stroke="#eee" stroke-width="0.5"/>
<text x="62" y="139.0" text-anchor="end" font-size="11" fill="#666">80</text>
<line x1="70" y1="98.0" x2="880" y2="98.0" stroke="#eee" stroke-width="0.5"/>
<text x="62" y="102.0" text-anchor="end" font-size="11" fill="#666">100</text>
<text x="70.0" y="303" text-anchor="middle" font-size="11" fill="#666">0s</text>
<text x="272.5" y="303" text-anchor="middle" font-size="11" fill="#666">1s</text>
<text x="475.0" y="303" text-anchor="middle" font-size="11" fill="#666">2s</text>
<text x="677.5" y="303" text-anchor="middle" font-size="11" fill="#666">3s</text>
<text x="880.0" y="303" text-anchor="middle" font-size="11" fill="#666">4s</text>
<polygon points="70.0,283.0 70.0,119.9 475.0,119.9 880.0,119.9 880.0,283.0" fill="#1d4ed8" opacity="0.12"/>
<polyline points="70.0,119.9 475.0,119.9 880.0,119.9" fill="none" stroke="#1d4ed8" stroke-width="1.5"/>
<text x="475.0" y="86" text-anchor="middle" font-size="13" font-weight="bold" fill="#333">RSS (MiB)</text>
<rect x="70" y="368" width="810" height="185" fill="#fafafa" stroke="#ddd"/>
<line x1="70" y1="553.0" x2="880" y2="553.0" stroke="#eee" stroke-width="0.5"/>
<text x="62" y="557.0" text-anchor="end" font-size="11" fill="#666">0.0</text>
<line x1="70" y1="529.9" x2="880" y2="529.9" stroke="#eee" stroke-width="0.5"/>
<text x="62" y="533.9" text-anchor="end" font-size="11" fill="#666">5.0</text>
<line x1="70" y1="506.8" x2="880" y2="506.8" stroke="#eee" stroke-width="0.5"/>
<text x="62" y="510.8" text-anchor="end" font-size="11" fill="#666">10.0</text>
<line x1="70" y1="483.6" x2="880" y2="483.6" stroke="#eee" stroke-width="0.5"/>
<text x="62" y="487.6" text-anchor="end" font-size="11" fill="#666">15.0</text>
<line x1="70" y1="460.5" x2="880" y2="460.5" stroke="#eee" stroke-width="0.5"/>
<text x="62" y="464.5" text-anchor="end" font-size="11" fill="#666">20.0</text>
<line x1="70" y1="437.4" x2="880" y2="437.4" stroke="#eee" stroke-width="0.5"/>
<text x="62" y="441.4" text-anchor="end" font-size="11" fill="#666">25.0</text>
<line x1="70" y1="414.2" x2="880" y2="414.2" stroke="#eee" stroke-width="0.5"/>
<text x="62" y="418.2" text-anchor="end" font-size="11" fill="#666">30.0</text>
<line x1="70" y1="391.1" x2="880" y2="391.1" stroke="#eee" stroke-width="0.5"/>
<text x="62" y="395.1" text-anchor="end" font-size="11" fill="#666">35.0</text>
<line x1="70" y1="368.0" x2="880" y2="368.0" stroke="#eee" stroke-width="0.5"/>
<text x="62" y="372.0" text-anchor="end" font-size="11" fill="#666">40.0</text>
<text x="70.0" y="573" text-anchor="middle" font-size="11" fill="#666">0s</text>
<text x="272.5" y="573" text-anchor="middle" font-size="11" fill="#666">1s</text>
<text x="475.0" y="573" text-anchor="middle" font-size="11" fill="#666">2s</text>
<text x="677.5" y="573" text-anchor="middle" font-size="11" fill="#666">3s</text>
<text x="880.0" y="573" text-anchor="middle" font-size="11" fill="#666">4s</text>
<polygon points="70.0,553.0 70.0,406.9 475.0,428.1 880.0,386.5 880.0,553.0" fill="#b91c1c" opacity="0.12"/>
<polyline points="70.0,406.9 475.0,428.1 880.0,386.5" fill="none" stroke="#b91c1c" stroke-width="1.5"/>
<text x="475.0" y="356" text-anchor="middle" font-size="13" font-weight="bold" fill="#333">CPU (%)</text>
</svg>